<?xml version="1.0" encoding="UTF-8" standalone="no"?>
<svg
   xmlns:dc="http://purl.org/dc/elements/1.1/"
   xmlns:cc="http://creativecommons.org/ns#"
   xmlns:rdf="http://www.w3.org/1999/02/22-rdf-syntax-ns#"
   xmlns:svg="http://www.w3.org/2000/svg"
   xmlns="http://www.w3.org/2000/svg"
   xmlns:sodipodi="http://sodipodi.sourceforge.net/DTD/sodipodi-0.dtd"
   xmlns:inkscape="http://www.inkscape.org/namespaces/inkscape"
   version="1.1"
   id="svg2"
   xml:space="preserve"
   width="4129.3335"
   height="2911.6399"
   viewBox="0 0 4129.3335 2911.6399"
   sodipodi:docname="404.eps"><metadata
     id="metadata8"><rdf:RDF><cc:Work
         rdf:about=""><dc:format>image/svg+xml</dc:format><dc:type
           rdf:resource="http://purl.org/dc/dcmitype/StillImage" /></cc:Work></rdf:RDF></metadata><defs
     id="defs6" /><sodipodi:namedview
     pagecolor="#ffffff"
     bordercolor="#666666"
     borderopacity="1"
     objecttolerance="10"
     gridtolerance="10"
     guidetolerance="10"
     inkscape:pageopacity="0"
     inkscape:pageshadow="2"
     inkscape:window-width="640"
     inkscape:window-height="480"
     id="namedview4" /><g
     id="g10"
     inkscape:groupmode="layer"
     inkscape:label="ink_ext_XXXXXX"
     transform="matrix(1.3333333,0,0,-1.3333333,0,2911.64)"><g
       id="g12"
       transform="scale(0.1)"><path
         d="M 30970,0 H 0 V 21837.3 H 30970 V 0"
         style="fill:#fcf0f0;fill-opacity:1;fill-rule:nonzero;stroke:none"
         id="path14" /><path
         d="m 17461.8,17190.7 c -3.6,-879.1 -891.2,-1588.1 -1982.2,-1583.6 -1091.2,4.4 -1972.8,720.6 -1969.2,1599.8 2.6,622.4 448.2,1159.6 1095.4,1418.5 62.5,25.1 126.9,47.5 192.8,67.1 24,7.2 48.1,14 72.5,20.3 174.7,45.8 360.2,72.6 552.5,76.9 22.9,0.7 45.9,0.9 69,0.9 1091.1,-4.5 1972.8,-720.7 1969.2,-1599.9"
         style="fill:#fcf0f0;fill-opacity:1;fill-rule:nonzero;stroke:none"
         id="path16" /><path
         d="m 15483.3,18717.8 c -19.3,0 -38.5,-0.3 -57.6,-0.8 -182.9,-4.1 -363.1,-29.2 -536.1,-74.6 -22.3,-5.8 -45.1,-12.2 -70,-19.6 -63.9,-19.1 -126.6,-40.9 -186.6,-65 -645.2,-258 -1047.4,-775.8 -1049.8,-1351.2 -3.4,-837.6 847.5,-1522.4 1896.7,-1526.7 3.3,0 6.6,0 9.9,0 1044.8,0 1895.8,676.2 1899.2,1511.1 1.7,402.8 -192.7,783.1 -547.2,1071.1 -359.1,291.8 -838.3,453.6 -1349.5,455.6 -3,0 -6,0.1 -9,0.1 z m 6.5,-3183.6 c -3.5,0 -7,0 -10.5,0.1 -1129.5,4.6 -2045.4,755 -2041.7,1672.9 2.6,636 439.9,1205.3 1141.2,1485.8 64,25.7 131,49 199.1,69.3 26.5,8 51.2,14.9 75.1,21 183.6,48.2 375.2,74.9 569,79.2 23.2,0.7 47,1 70.9,0.9 544.3,-2.3 1055.9,-175.6 1440.7,-488.2 389.4,-316.4 602.9,-737.1 601,-1184.8 v 0 c -3.7,-915 -920.1,-1656.2 -2044.8,-1656.2"
         style="fill:#869edb;fill-opacity:1;fill-rule:nonzero;stroke:none"
         id="path18" /><path
         d="m 15184.4,17392.9 -877.4,3.6 c 0,0 19.9,847.2 564.1,1316.3 174.7,45.8 360.2,72.6 552.5,76.9 -222.8,-266.2 -493.7,-756.7 -239.2,-1396.8"
         style="fill:#869edb;fill-opacity:1;fill-rule:nonzero;stroke:none"
         id="path20" /><path
         d="m 14181.6,17334.6 -280.2,63.6 c 0,0 -72.3,671.8 704.4,1227.2 62.5,25.1 126.9,47.5 192.8,67.1 -296.5,-252.3 -729.3,-738.3 -617,-1357.9"
         style="fill:#869edb;fill-opacity:1;fill-rule:nonzero;stroke:none"
         id="path22" /><path
         d="m 19251.9,16192.8 c -1.4,-332 -1688.7,-594.3 -3768.7,-585.8 -2080,8.5 -3765.2,284.6 -3763.8,616.6 2.3,566.8 1692.1,1444.4 3772.2,1435.9 2080,-8.5 3762.6,-899.9 3760.3,-1466.7"
         style="fill:#fcf0f0;fill-opacity:1;fill-rule:nonzero;stroke:none"
         id="path24" /><path
         d="m 15491.4,17600.6 c -542.8,2.2 -1607.8,-59.5 -2642.1,-497.6 -328.4,-139.1 -602.9,-298 -794,-459.7 -178.1,-150.7 -276.5,-299.9 -277,-419.9 -0.3,-73.8 220.9,-235.1 1052,-371.2 707.9,-116 1650.1,-182.1 2653.2,-186.2 1003,-4.1 1945.7,54.3 2654.5,164.5 832.1,129.3 1054.6,288.8 1055,362.6 0.4,120 -96.7,269.9 -273.6,422.1 -189.7,163.3 -463,324.5 -790.2,466.3 -442.4,191.6 -1373.3,513.9 -2637.8,519.1 z m -8.4,-2052.5 c -1009.1,4.1 -1957.9,70.8 -2671.8,187.7 -775.2,127 -1151.6,286.7 -1150.8,488.1 0.7,157.3 110.9,333.5 318.8,509.4 200,169.2 485,334.6 824.2,478.3 780.9,330.7 1735.7,510.8 2688.5,506.9 952.7,-3.9 1906,-191.7 2684.2,-528.9 338,-146.4 621.6,-314.1 820.2,-485 206.4,-177.6 315.2,-354.7 314.5,-512 -0.8,-201.4 -378.5,-358 -1154.7,-478.6 -714.8,-111.1 -1664.1,-170 -2673.1,-165.9"
         style="fill:#869edb;fill-opacity:1;fill-rule:nonzero;stroke:none"
         id="path26" /><path
         d="m 19251.9,16192.8 c -1.4,-332 -1688.7,-594.3 -3768.7,-585.8 -2080,8.5 -3765.2,284.6 -3763.8,616.6 1.3,332 1688.7,594.2 3768.8,585.7 2079.9,-8.5 3765,-284.5 3763.7,-616.5"
         style="fill:#869edb;fill-opacity:1;fill-rule:nonzero;stroke:none"
         id="path28" /><path
         d="m 15479.9,15674.1 c -352.3,1.4 -683.9,23.2 -933.7,61.4 -331.1,50.6 -413.6,113.2 -429.5,171.3 l -214.3,241.7 c -27,25.3 -32.7,51.6 -32.6,69.5 0.4,110.1 203.1,157.2 507.3,194 295.9,35.8 688.7,54.6 1106,52.9 417.3,-1.7 809.9,-23.7 1105.5,-62 420.2,-54.3 506.1,-118.5 505.8,-198 -0.1,-18 -6,-44.2 -33.3,-69.3 l -216.2,-240 c -16.4,-57.9 -99.4,-119.9 -430.9,-167.8 -250.1,-36.1 -581.8,-55.2 -934.1,-53.7"
         style="fill:#fcf0f0;fill-opacity:1;fill-rule:nonzero;stroke:none"
         id="path30" /><path
         d="m 17039,16201.8 c 0.4,107.4 -694.7,197.4 -1552.6,200.9 -857.9,3.5 -1553.7,-80.7 -1554.1,-188.2 -0.1,-9.4 5.4,-18.7 15.7,-27.9 v 0 l 228,-257 2617,-10.7 230,255.2 c 10.4,9 16,18.3 16,27.7"
         style="fill:#fcf0f0;fill-opacity:1;fill-rule:nonzero;stroke:none"
         id="path32" /><path
         d="m 12493.6,15786.9 c 0,0 -17.9,2.9 -51.4,8.3 -33.6,5.8 -82.9,14 -144.9,28.5 -61.9,14.5 -137.3,33.1 -221.4,63.9 -42.1,15.4 -86.4,33.5 -131.8,57.4 -22.7,12 -45.5,25.7 -67.9,42.2 -22.3,16.6 -44.7,35.5 -63.6,61.7 -9.3,13.2 -18.1,28 -23.2,45.9 -2.5,8.9 -4.4,18.3 -4.8,28.1 l -0.2,1.8 c 0,1.3 -0.1,-0.2 -0.1,3.3 l 0.1,2.6 c 0.1,2 0,3 0.2,5.8 0.4,5.7 1.2,11.3 2.2,15.8 8.5,39 32.4,67.3 56.3,89.9 24.4,22.8 51.3,40.6 79.1,56.6 27.8,16.1 56.7,30.1 86.1,43.1 118.1,51.3 246.2,89 379.8,120.8 133.6,31.5 272.3,59.4 414,81.5 141.7,22.4 286,41.6 430.4,58.3 144.6,15.7 289.4,28.5 432,39.5 142.5,11.6 283.1,18 419,24.5 135.9,6.6 267.5,9.6 392.1,11.8 124.7,2.6 242.6,2.7 351.4,1.8 108.8,-0.3 208.5,-2.5 296.9,-4.9 88.3,-2.1 165.3,-5.5 228.7,-8.2 63.4,-2.6 113.2,-6 147.1,-7.8 34,-2.1 52.1,-3.2 52.1,-3.2 0,0 -289.3,-15.4 -723.2,-38.7 -108.3,-6.3 -225.6,-13.3 -349.7,-20.6 -123.9,-8.4 -254.6,-17.2 -389.8,-26.3 -135.1,-9.3 -274.5,-22 -416.1,-33.5 -141.6,-12.2 -285.2,-26.5 -428.4,-42.8 -143.4,-15.3 -286.4,-33 -426.5,-53.9 -140,-21.2 -277.7,-42.9 -409,-70.9 -130.9,-28.5 -257.4,-58.7 -369.8,-102.1 -55.6,-21.7 -108.7,-47.2 -148.4,-79.1 -19.5,-15.9 -34.4,-34.1 -38.9,-50.8 -4.7,-16 -0.4,-34.5 11.8,-53.5 11.7,-18.8 29.1,-36.1 47.6,-51.6 18.6,-15.4 38.6,-29.2 58.7,-42.1 40.5,-25.5 81.8,-46.2 121.4,-64.3 79.4,-35.6 151.7,-61.5 211.6,-81.4 60,-19.6 107.7,-34.3 140.3,-43.4 32.8,-9.2 50.2,-14 50.2,-14"
         style="fill:#fcf0f0;fill-opacity:1;fill-rule:nonzero;stroke:none"
         id="path34" /><path
         d="m 13728.3,16275.7 c -0.1,-43 -126.7,-77.4 -282.7,-76.8 -156,0.7 -282.3,36.1 -282.1,79.2 0.2,43 126.8,77.4 282.7,76.7 156,-0.6 282.3,-36 282.1,-79.1"
         style="fill:#fcf0f0;fill-opacity:1;fill-rule:nonzero;stroke:none"
         id="path36" /><path
         d="m 13761.7,16258.5 c -0.2,-43.1 -126.8,-77.5 -282.8,-76.8 -155.9,0.6 -282.2,36 -282.1,79.1 0.2,43 126.8,77.4 282.8,76.8 156,-0.7 282.2,-36.1 282.1,-79.1"
         style="fill:#869edb;fill-opacity:1;fill-rule:nonzero;stroke:none"
         id="path38" /><path
         d="m 13699.6,16241.4 c -0.1,-34.8 -108.4,-62.5 -241.9,-62 -133.5,0.6 -241.5,29.2 -241.4,64 0.1,34.8 108.5,62.6 241.9,62 133.5,-0.5 241.6,-29.2 241.4,-64"
         style="fill:#fcf0f0;fill-opacity:1;fill-rule:nonzero;stroke:none"
         id="path40" /><path
         d="m 13728.1,16227.5 c -0.1,-34.8 -108.4,-62.6 -241.9,-62 -133.4,0.5 -241.5,29.1 -241.4,63.9 0.2,34.8 108.5,62.6 241.9,62 133.5,-0.5 241.6,-29.2 241.4,-63.9"
         style="fill:#869edb;fill-opacity:1;fill-rule:nonzero;stroke:none"
         id="path42" /><path
         d="m 13607.9,16216.8 c -0.1,-9.9 -67.3,-17.8 -150.1,-17.4 -82.9,0.3 -150,8.7 -150,18.7 0.1,9.9 67.3,17.7 150.1,17.4 82.9,-0.3 150,-8.7 150,-18.7"
         style="fill:#fcf0f0;fill-opacity:1;fill-rule:nonzero;stroke:none"
         id="path44" /><path
         d="m 13745.4,15890.6 c -0.1,-22.4 -66.2,-40.4 -147.7,-40.1 -81.6,0.4 -147.5,18.9 -147.5,41.4 0.1,22.5 66.3,40.4 147.8,40.1 81.5,-0.3 147.5,-18.9 147.4,-41.4"
         style="fill:#fcf0f0;fill-opacity:1;fill-rule:nonzero;stroke:none"
         id="path46" /><path
         d="m 13762.8,15881.6 c -0.1,-22.5 -66.2,-40.4 -147.7,-40.1 -81.5,0.3 -147.5,18.8 -147.4,41.3 0.1,22.5 66.2,40.5 147.7,40.2 81.5,-0.4 147.5,-18.9 147.4,-41.4"
         style="fill:#869edb;fill-opacity:1;fill-rule:nonzero;stroke:none"
         id="path48" /><path
         d="m 13730.4,15872.7 c -0.1,-18.2 -56.7,-32.7 -126.4,-32.4 -69.8,0.3 -126.2,15.3 -126.2,33.5 0.1,18.1 56.7,32.6 126.4,32.4 69.8,-0.3 126.3,-15.3 126.2,-33.5"
         style="fill:#fcf0f0;fill-opacity:1;fill-rule:nonzero;stroke:none"
         id="path50" /><path
         d="m 13745.3,15865.4 c -0.1,-18.2 -56.7,-32.7 -126.4,-32.4 -69.8,0.3 -126.2,15.3 -126.2,33.5 0.1,18.1 56.7,32.6 126.4,32.4 69.8,-0.3 126.3,-15.3 126.2,-33.5"
         style="fill:#869edb;fill-opacity:1;fill-rule:nonzero;stroke:none"
         id="path52" /><path
         d="m 13682.4,15859.9 c 0,-5.2 -35.1,-9.3 -78.4,-9.1 -43.3,0.1 -78.4,4.5 -78.3,9.7 0,5.2 35.1,9.3 78.4,9.1 43.3,-0.2 78.4,-4.5 78.3,-9.7"
         style="fill:#fcf0f0;fill-opacity:1;fill-rule:nonzero;stroke:none"
         id="path54" /><path
         d="m 14718.5,17437.5 c -1628.9,-243.5 -1907.3,-474.3 -2198.7,-599.4 -306.4,-131.5 -520.3,-294.8 -743.8,-501.8 159.2,45.8 493.3,176.4 721.3,218.4 423.9,78.2 1603,191.3 2145,229.9 0,0 -1237.2,-78.4 -1219.3,123.8 22.5,255.6 1295.5,529.1 1295.5,529.1"
         style="fill:#869edb;fill-opacity:1;fill-rule:nonzero;stroke:none"
         id="path56" /><path
         d="m 19185.4,16313.8 c -144.5,41.6 -434.2,175.3 -656.9,227.1 -22.8,5.2 -44.7,9.9 -65.9,13.8 -9.6,1.8 -19.7,3.8 -30.3,5.5 -444.4,77.5 -1570.2,185.4 -2104.2,223.7 120.8,-6.9 1225.7,-66.5 1208.8,124.5 -22.2,251.7 -1256,520.5 -1294.6,529 1103.3,-164.9 1586.9,-324.3 1874.5,-448.5 56.5,-24.5 105.2,-47.6 149.8,-69.1 63.6,-30.4 118.3,-57.9 173.6,-81.7 306.2,-131.6 552.8,-290.6 745.2,-524.3"
         style="fill:#869edb;fill-opacity:1;fill-rule:nonzero;stroke:none"
         id="path58" /><path
         d="m 17243.4,16261.4 c -0.1,-43.1 126.2,-78.5 282.1,-79.1 156,-0.7 282.6,33.7 282.8,76.8 0.1,43 -126.2,78.4 -282.1,79.1 -156,0.6 -282.6,-33.8 -282.8,-76.8"
         style="fill:#fcf0f0;fill-opacity:1;fill-rule:nonzero;stroke:none"
         id="path60" /><path
         d="m 17210,16244.4 c -0.2,-43.1 126.1,-78.5 282.1,-79.1 155.9,-0.7 282.5,33.7 282.7,76.8 0.2,43 -126.1,78.4 -282.1,79.1 -156,0.6 -282.6,-33.8 -282.7,-76.8"
         style="fill:#869edb;fill-opacity:1;fill-rule:nonzero;stroke:none"
         id="path62" /><path
         d="m 17271.9,16226.8 c -0.2,-34.8 107.9,-63.4 241.4,-64 133.4,-0.5 241.7,27.3 241.9,62 0.1,34.8 -108,63.5 -241.4,64 -133.5,0.6 -241.8,-27.2 -241.9,-62"
         style="fill:#fcf0f0;fill-opacity:1;fill-rule:nonzero;stroke:none"
         id="path64" /><path
         d="m 17243.2,16213.1 c -0.1,-34.8 108,-63.5 241.4,-64 133.5,-0.5 241.8,27.2 242,62 0.1,34.8 -108,63.4 -241.5,64 -133.4,0.5 -241.7,-27.2 -241.9,-62"
         style="fill:#869edb;fill-opacity:1;fill-rule:nonzero;stroke:none"
         id="path66" /><path
         d="m 17363.4,16201.5 c 0,-10 67.1,-18.4 150,-18.7 82.8,-0.3 150,7.5 150,17.4 0.1,10 -67,18.4 -149.9,18.7 -82.9,0.3 -150.1,-7.5 -150.1,-17.4"
         style="fill:#fcf0f0;fill-opacity:1;fill-rule:nonzero;stroke:none"
         id="path68" /><path
         d="m 17223.2,15876.4 c -0.1,-22.5 65.9,-41 147.4,-41.3 81.5,-0.3 147.7,17.6 147.8,40.1 0.1,22.5 -65.9,41 -147.4,41.4 -81.5,0.3 -147.7,-17.7 -147.8,-40.2"
         style="fill:#fcf0f0;fill-opacity:1;fill-rule:nonzero;stroke:none"
         id="path70" /><path
         d="m 17205.7,15867.5 c -0.1,-22.5 65.9,-41 147.4,-41.3 81.5,-0.3 147.7,17.6 147.8,40.1 0.1,22.5 -65.9,41 -147.4,41.4 -81.5,0.3 -147.7,-17.7 -147.8,-40.2"
         style="fill:#869edb;fill-opacity:1;fill-rule:nonzero;stroke:none"
         id="path72" /><path
         d="m 17238.1,15858.4 c -0.1,-18.2 56.4,-33.2 126.1,-33.5 69.8,-0.2 126.4,14.3 126.4,32.4 0.1,18.2 -56.4,33.2 -126.1,33.5 -69.7,0.3 -126.3,-14.2 -126.4,-32.4"
         style="fill:#fcf0f0;fill-opacity:1;fill-rule:nonzero;stroke:none"
         id="path74" /><path
         d="m 17223.1,15851.2 c 0,-18.2 56.4,-33.1 126.2,-33.4 69.7,-0.3 126.3,14.2 126.4,32.4 0.1,18.1 -56.4,33.1 -126.2,33.4 -69.7,0.3 -126.3,-14.2 -126.4,-32.4"
         style="fill:#869edb;fill-opacity:1;fill-rule:nonzero;stroke:none"
         id="path76" /><path
         d="m 17285.9,15845.1 c 0,-5.2 35.1,-9.5 78.4,-9.7 43.3,-0.2 78.4,3.9 78.4,9.1 0,5.2 -35.1,9.6 -78.3,9.7 -43.3,0.2 -78.5,-3.9 -78.5,-9.1"
         style="fill:#fcf0f0;fill-opacity:1;fill-rule:nonzero;stroke:none"
         id="path78" /><path
         d="m 14336.6,16333.3 c 148.6,22.8 178.6,30.8 368.7,39.4 l 74.8,-300.4 c -319.9,-39.8 -549.6,-125.7 -592.2,-169.1 l -255.6,311.3 c 24,20.7 131.1,76.5 404.3,118.8"
         style="fill:#869edb;fill-opacity:1;fill-rule:nonzero;stroke:none"
         id="path80" /><path
         d="m 14634.9,16368.5 c 0,0 402.3,30.9 545.4,35.4 l -545.6,-79.6 0.2,44.2"
         style="fill:#869edb;fill-opacity:1;fill-rule:nonzero;stroke:none"
         id="path82" /><path
         d="m 14631.9,16298 1.3,43.8 c 3.8,0.4 395.8,27.8 524.6,31.8 -4.1,0 -525.9,-75.6 -525.9,-75.6"
         style="fill:#869edb;fill-opacity:1;fill-rule:nonzero;stroke:none"
         id="path84" /><path
         d="m 14629.1,16271.7 2.4,43.5 c 7.6,0.7 389.3,24.5 503.8,28.1 -8.3,-0.1 -506.2,-71.6 -506.2,-71.6"
         style="fill:#869edb;fill-opacity:1;fill-rule:nonzero;stroke:none"
         id="path86" /><path
         d="m 14626.3,16245.4 3.6,43.2 c 11.2,1 382.7,21.2 482.9,24.4 -12.5,-0.2 -486.5,-67.6 -486.5,-67.6"
         style="fill:#869edb;fill-opacity:1;fill-rule:nonzero;stroke:none"
         id="path88" /><path
         d="m 14623.5,16219.1 4.7,42.8 c 15,1.5 376.2,18.1 462,20.7 -16.6,-0.1 -466.7,-63.5 -466.7,-63.5"
         style="fill:#869edb;fill-opacity:1;fill-rule:nonzero;stroke:none"
         id="path90" /><path
         d="m 14620.7,16192.8 5.8,42.5 c 18.8,1.8 369.7,14.8 441.2,17 -20.8,-0.2 -447,-59.5 -447,-59.5"
         style="fill:#869edb;fill-opacity:1;fill-rule:nonzero;stroke:none"
         id="path92" /><path
         d="m 14617.9,16166.5 6.9,42.1 c 22.6,2.2 363.2,11.6 420.4,13.4 -25,-0.2 -427.3,-55.5 -427.3,-55.5"
         style="fill:#869edb;fill-opacity:1;fill-rule:nonzero;stroke:none"
         id="path94" /><path
         d="m 14615.1,16141.1 8,41.8 c 26.4,2.6 356.6,8.4 399.6,9.7 -29.1,-0.3 -407.6,-51.5 -407.6,-51.5"
         style="fill:#869edb;fill-opacity:1;fill-rule:nonzero;stroke:none"
         id="path96" /><path
         d="m 14612.3,16115 9.2,41.4 c 30,2.9 350,5.1 378.7,6 -33.3,-0.3 -387.9,-47.4 -387.9,-47.4"
         style="fill:#869edb;fill-opacity:1;fill-rule:nonzero;stroke:none"
         id="path98" /><path
         d="m 14609.5,16088.8 10.3,41.1 c 33.8,3.3 343.5,1.9 357.8,2.3 -37.4,-0.3 -368.1,-43.4 -368.1,-43.4"
         style="fill:#869edb;fill-opacity:1;fill-rule:nonzero;stroke:none"
         id="path100" /><path
         d="m 14606.6,16061.3 c 0,0 306.9,39 348.5,39.4 0,0 -299.4,5 -337,1.4 l -11.5,-40.8"
         style="fill:#869edb;fill-opacity:1;fill-rule:nonzero;stroke:none"
         id="path102" /><path
         d="m 16635.6,16323.9 c -148.4,24 -178.3,32.3 -368.3,42.5 l -77.3,-299.8 c 319.6,-42.4 548.6,-130.2 590.9,-174 l 258.1,309.2 c -23.9,20.9 -130.5,77.5 -403.4,122.1"
         style="fill:#869edb;fill-opacity:1;fill-rule:nonzero;stroke:none"
         id="path104" /><path
         d="m 16337.7,16361.5 c 0,0 -402.1,34.3 -545.2,39.9 l 545,-84 0.2,44.1"
         style="fill:#869edb;fill-opacity:1;fill-rule:nonzero;stroke:none"
         id="path106" /><path
         d="m 16340.1,16291.1 c 0,0 -521.1,79.8 -525.3,79.8 128.8,-5.1 520.6,-35.7 524.3,-36 l 1,-43.8"
         style="fill:#869edb;fill-opacity:1;fill-rule:nonzero;stroke:none"
         id="path108" /><path
         d="m 16342.7,16264.7 c 0,0 -497.3,75.6 -505.6,75.7 114.4,-4.5 496,-31.4 503.5,-32.2 l 2.1,-43.5"
         style="fill:#869edb;fill-opacity:1;fill-rule:nonzero;stroke:none"
         id="path110" /><path
         d="m 16345.2,16238.4 c 0,0 -473.4,71.3 -485.8,71.5 100.1,-3.9 471.4,-27.2 482.6,-28.3 l 3.2,-43.2"
         style="fill:#869edb;fill-opacity:1;fill-rule:nonzero;stroke:none"
         id="path112" /><path
         d="m 16347.8,16212.1 c 0,0 -449.5,67 -466.2,67.3 85.9,-3.4 446.9,-22.9 461.9,-24.5 l 4.3,-42.8"
         style="fill:#869edb;fill-opacity:1;fill-rule:nonzero;stroke:none"
         id="path114" /><path
         d="m 16350.4,16185.7 c 0,0 -425.7,62.8 -446.5,63.2 71.5,-2.8 422.3,-18.7 441.1,-20.6 l 5.4,-42.6"
         style="fill:#869edb;fill-opacity:1;fill-rule:nonzero;stroke:none"
         id="path116" /><path
         d="m 16353,16159.4 c 0,0 -401.9,58.6 -426.8,59 57.2,-2.3 397.7,-14.4 420.2,-16.8 l 6.6,-42.2"
         style="fill:#869edb;fill-opacity:1;fill-rule:nonzero;stroke:none"
         id="path118" /><path
         d="m 16355.6,16133.1 c 0,0 -378,54.3 -407.1,54.8 42.9,-1.7 373.1,-10.2 399.4,-12.9 l 7.7,-41.9"
         style="fill:#869edb;fill-opacity:1;fill-rule:nonzero;stroke:none"
         id="path120" /><path
         d="m 16358.2,16106.7 c 0,0 -354.2,50.1 -387.5,50.7 28.6,-1.1 348.6,-6 378.7,-9.1 l 8.8,-41.6"
         style="fill:#869edb;fill-opacity:1;fill-rule:nonzero;stroke:none"
         id="path122" /><path
         d="m 16360.8,16080.4 c 0,0 -330.4,45.8 -367.8,46.5 14.3,-0.6 324,-1.7 357.8,-5.2 l 10,-41.3"
         style="fill:#869edb;fill-opacity:1;fill-rule:nonzero;stroke:none"
         id="path124" /><path
         d="m 16363.4,16054.1 c 0,0 -306.5,41.5 -348.1,42.3 0,0 299.4,2.5 337,-1.4 l 11.1,-40.9"
         style="fill:#869edb;fill-opacity:1;fill-rule:nonzero;stroke:none"
         id="path126" /><path
         d="m 18443.2,16417.9 c 0,0 -12.4,394.8 -371.5,593.8 l 48.4,-0.2 c 0,0 372.5,-175.9 423.8,-615.5 l -100.7,21.9"
         style="fill:#fcf0f0;fill-opacity:1;fill-rule:nonzero;stroke:none"
         id="path128" /><path
         d="m 12522.7,16442.1 c 0,0 15.7,394.7 376.3,590.7 l -48.3,0.2 c 0,0 -374,-172.8 -428.9,-612 l 100.9,21.1"
         style="fill:#fcf0f0;fill-opacity:1;fill-rule:nonzero;stroke:none"
         id="path130" /><path
         d="m 14635.1,16406.2 c 0,0 -81.7,-232.7 19.2,-356.9 0,0 -227.4,131.7 -234.5,324.6 l 215.3,32.3"
         style="fill:#fcf0f0;fill-opacity:1;fill-rule:nonzero;stroke:none"
         id="path132" /><path
         d="m 16793,15918.9 c -0.5,-107.4 -586.7,-192.1 -1309.3,-189.2 -722.7,3 -1308.1,92.5 -1307.7,199.9 0.4,107.4 586.6,192.1 1309.3,189.1 722.6,-2.9 1308.1,-92.4 1307.7,-199.8"
         style="fill:#869edb;fill-opacity:1;fill-rule:nonzero;stroke:none"
         id="path134" /><path
         d="m 16449.6,15918.1 c -0.3,-68.4 -432.6,-122.1 -965.6,-119.9 -533.1,2.2 -964.9,59.4 -964.7,127.8 0.3,68.4 432.7,122.1 965.7,119.9 533,-2.2 964.8,-59.4 964.6,-127.8"
         style="fill:#fcf0f0;fill-opacity:1;fill-rule:nonzero;stroke:none"
         id="path136" /><path
         d="m 12473.6,16112.5 c 0,-11.7 -60.7,-21 -135.6,-20.7 -74.9,0.3 -135.6,10.1 -135.5,21.8 0,11.8 60.8,21.1 135.7,20.8 74.8,-0.3 135.5,-10.1 135.4,-21.9"
         style="fill:#fcf0f0;fill-opacity:1;fill-rule:nonzero;stroke:none"
         id="path138" /><path
         d="m 18496.7,16087.9 c 0,-11.7 60.6,-21.5 135.5,-21.8 74.9,-0.3 135.6,8.9 135.7,20.7 0,11.8 -60.6,21.5 -135.5,21.8 -74.9,0.3 -135.6,-8.9 -135.7,-20.7"
         style="fill:#fcf0f0;fill-opacity:1;fill-rule:nonzero;stroke:none"
         id="path140" /><path
         d="m 20874.1,14775 c -2,-475.2 -2416.3,-850.4 -5392.5,-838.3 -2976.4,12.2 -5387.6,407.2 -5385.7,882.3 3.3,811.1 2421.3,2066.8 5397.7,2054.6 2976.2,-12.1 5383.8,-1287.6 5380.5,-2098.6"
         style="fill:#fcf0f0;fill-opacity:1;fill-rule:nonzero;stroke:none"
         id="path142" /><path
         d="m 15493.2,16789.3 c -776.6,3.2 -2300.5,-85.1 -3780.4,-711.9 -470,-199.1 -862.8,-426.5 -1136.2,-657.9 -254.9,-215.7 -395.6,-429.1 -396.3,-600.8 -0.5,-105.6 316.1,-336.4 1505.2,-531.2 1012.9,-165.9 2361.2,-260.6 3796.4,-266.4 1435.2,-5.9 2784.1,77.7 3798.3,235.3 1190.7,185.1 1509.1,413.3 1509.5,518.9 0.7,171.8 -138.3,386.3 -391.4,604.1 -271.5,233.5 -662.4,464.2 -1130.7,667.1 -633,274.2 -1965.1,735.4 -3774.4,742.8 z m -12,-2936.9 c -1443.8,5.9 -2801.5,101.3 -3823,268.6 -1109.2,181.7 -1647.8,410.2 -1646.6,698.4 0.9,225.1 158.6,477.2 456.1,728.9 286.1,242.2 693.9,478.8 1179.3,684.4 1117.4,473.3 2483.6,730.8 3846.9,725.3 1363.3,-5.6 2727.3,-274.4 3840.8,-756.8 483.6,-209.5 889.4,-449.5 1173.6,-694 295.4,-254.1 451,-507.4 450.1,-732.6 -1.2,-288.2 -541.6,-512.2 -1652.3,-684.8 -1022.7,-159 -2381.1,-243.3 -3824.9,-237.4"
         style="fill:#869edb;fill-opacity:1;fill-rule:nonzero;stroke:none"
         id="path144" /><path
         d="m 20874.1,14775 c -2,-475.2 -2416.3,-850.4 -5392.5,-838.3 -2976.4,12.2 -5387.6,407.2 -5385.7,882.3 2,475 2416.3,850.3 5392.7,838.1 2976.2,-12.2 5387.4,-407.1 5385.5,-882.1"
         style="fill:#869edb;fill-opacity:1;fill-rule:nonzero;stroke:none"
         id="path146" /><path
         d="m 15476.7,14032.6 c -504.1,2.1 -978.5,33.3 -1335.9,87.9 -473.8,72.5 -591.8,162 -614.5,245.2 l -306.7,345.8 c -38.7,36.2 -46.8,73.9 -46.7,99.5 0.6,157.5 290.7,224.8 726,277.5 423.4,51.3 985.4,78.2 1582.5,75.7 597.1,-2.4 1158.8,-33.9 1581.8,-88.6 601.3,-77.8 724.2,-169.6 723.7,-283.4 -0.1,-25.7 -8.6,-63.3 -47.6,-99.2 l -309.4,-343.3 c -23.4,-82.9 -142.1,-171.5 -616.5,-240.1 -357.8,-51.7 -832.5,-79 -1336.7,-77"
         style="fill:#fcf0f0;fill-opacity:1;fill-rule:nonzero;stroke:none"
         id="path148" /><path
         d="m 17707.7,14787.8 c 0.6,153.7 -994,282.4 -2221.6,287.4 -1227.5,5 -2223.2,-115.5 -2223.8,-269.2 0,-13.5 7.8,-26.8 22.6,-39.9 v 0 l 326.1,-367.8 3744.6,-15.3 329.2,365.1 c 14.9,13 22.8,26.2 22.9,39.7"
         style="fill:#fcf0f0;fill-opacity:1;fill-rule:nonzero;stroke:none"
         id="path150" /><path
         d="m 11203.8,14194.1 c 0,0 -25.5,4.5 -73.4,13.1 -47.7,9.1 -118,22.1 -206.3,43.9 -88.2,21.9 -195.3,50.2 -314.7,95.3 -59.7,22.6 -122.5,49.1 -186.4,83.6 -31.9,17.3 -64,36.8 -95.2,60.3 -31,23.5 -61.9,50.4 -87.6,86.1 -12.6,17.9 -24,38.2 -30.8,61.8 -3.4,11.7 -5.6,24.2 -6.2,37 l -0.2,4.8 0.1,5.2 c 0.2,2.7 0,4.5 0.4,8 0.6,7.2 1.5,14.4 2.9,20.3 11.3,51 43.6,89.4 76.8,120.3 33.9,31.1 71.7,55.8 110.9,78.1 39.2,22.4 80.1,41.9 121.9,60.1 167.8,71.7 350.7,124 541.2,168.8 190.7,44.4 388.9,82.9 591.4,114.4 202.4,31.8 408.6,58.8 615,82.5 206.6,22.5 413.5,41.2 617.3,57.2 203.8,16.5 404.7,27 599,36.9 194.3,10 382.3,15.8 560.6,20.1 178.2,4.7 346.8,6.3 502.4,6.7 155.6,0.8 298.2,-0.7 424.6,-2.6 126.3,-1.7 236.5,-4.8 327.2,-7.5 90.6,-2.4 161.9,-5.8 210.4,-7.7 48.6,-2.1 74.5,-3.2 74.5,-3.2 0,0 -103.6,-3.9 -284.9,-10.8 -90.5,-3.5 -200.5,-7.8 -326.7,-12.7 -126.1,-5.5 -268.4,-11.6 -423.5,-18.3 -155.1,-7.9 -323.1,-16.5 -500.8,-25.5 -177.6,-9.8 -364.7,-21.9 -558.2,-34.6 -193.5,-12.7 -393.2,-29.5 -596,-46 -202.8,-17.1 -408.5,-37.2 -613.8,-60.5 -205.4,-22.2 -410.3,-47.8 -611.1,-78.1 -200.8,-30.5 -397.9,-62.8 -586.3,-103.7 -188,-41.5 -369.3,-86.4 -531.3,-150.1 -80.2,-32.1 -157.1,-69.2 -216,-117.6 -28.9,-24.2 -52,-52.5 -59.3,-81.1 -8,-28.1 1.1,-58.8 19.7,-87.3 18.5,-28.5 44.4,-53.7 71.6,-76 27.4,-22.4 56.7,-42.1 86,-60.3 59,-36.1 118.8,-65.3 176,-90.5 114.7,-49.9 218.7,-85.6 304.9,-112.8 86.3,-26.8 154.9,-46.4 201.8,-58.8 47,-12.3 72.1,-18.8 72.1,-18.8"
         style="fill:#fcf0f0;fill-opacity:1;fill-rule:nonzero;stroke:none"
         id="path152" /><path
         d="m 12970.5,14893.6 c -0.2,-61.6 -181.4,-110.8 -404.5,-109.9 -223.2,0.9 -403.9,51.6 -403.7,113.2 0.3,61.6 181.4,110.8 404.6,109.9 223.1,-0.9 403.9,-51.6 403.6,-113.2"
         style="fill:#fcf0f0;fill-opacity:1;fill-rule:nonzero;stroke:none"
         id="path154" /><path
         d="m 13018.2,14868.9 c -0.2,-61.6 -181.4,-110.8 -404.6,-109.9 -223.1,0.9 -403.9,51.6 -403.6,113.2 0.2,61.6 181.4,110.8 404.6,109.9 223.1,-1 403.9,-51.6 403.6,-113.2"
         style="fill:#869edb;fill-opacity:1;fill-rule:nonzero;stroke:none"
         id="path156" /><path
         d="m 12929.4,14844.5 c -0.2,-49.8 -155.2,-89.5 -346.1,-88.7 -191,0.8 -345.7,41.7 -345.5,91.5 0.2,49.8 155.2,89.5 346.2,88.7 191,-0.7 345.6,-41.7 345.4,-91.5"
         style="fill:#fcf0f0;fill-opacity:1;fill-rule:nonzero;stroke:none"
         id="path158" /><path
         d="m 12970.2,14824.5 c -0.2,-49.8 -155.2,-89.5 -346.1,-88.7 -191,0.8 -345.7,41.7 -345.4,91.5 0.2,49.8 155.1,89.5 346.1,88.8 191,-0.8 345.6,-41.8 345.4,-91.6"
         style="fill:#869edb;fill-opacity:1;fill-rule:nonzero;stroke:none"
         id="path160" /><path
         d="m 12798.1,14809.3 c 0,-14.3 -96.2,-25.4 -214.7,-25 -118.6,0.5 -214.6,12.5 -214.6,26.7 0.1,14.3 96.2,25.5 214.8,25 118.5,-0.5 214.6,-12.4 214.5,-26.7"
         style="fill:#fcf0f0;fill-opacity:1;fill-rule:nonzero;stroke:none"
         id="path162" /><path
         d="m 12994.9,14342.6 c -0.1,-32.2 -94.8,-57.9 -211.4,-57.5 -116.6,0.5 -211,27 -210.9,59.2 0.1,32.2 94.8,57.9 211.4,57.4 116.6,-0.5 211,-26.9 210.9,-59.1"
         style="fill:#fcf0f0;fill-opacity:1;fill-rule:nonzero;stroke:none"
         id="path164" /><path
         d="m 13019.8,14329.6 c -0.1,-32.1 -94.7,-57.8 -211.4,-57.4 -116.6,0.5 -211,27 -210.9,59.2 0.1,32.2 94.8,57.9 211.4,57.4 116.6,-0.5 211.1,-27 210.9,-59.2"
         style="fill:#869edb;fill-opacity:1;fill-rule:nonzero;stroke:none"
         id="path166" /><path
         d="m 12973.4,14316.9 c -0.1,-26 -81.1,-46.8 -180.8,-46.3 -99.8,0.4 -180.7,21.8 -180.5,47.8 0.1,26 81,46.8 180.8,46.4 99.8,-0.5 180.6,-21.9 180.5,-47.9"
         style="fill:#fcf0f0;fill-opacity:1;fill-rule:nonzero;stroke:none"
         id="path168" /><path
         d="m 12994.8,14306.5 c -0.1,-26 -81.1,-46.8 -180.9,-46.4 -99.8,0.4 -180.6,21.8 -180.5,47.8 0.1,26.1 81.1,46.8 180.9,46.4 99.8,-0.4 180.6,-21.8 180.5,-47.8"
         style="fill:#869edb;fill-opacity:1;fill-rule:nonzero;stroke:none"
         id="path170" /><path
         d="m 12904.8,14298.5 c 0,-7.4 -50.2,-13.3 -112.2,-13 -61.9,0.2 -112.1,6.5 -112.1,13.9 0,7.5 50.3,13.3 112.2,13.1 62,-0.3 112.2,-6.5 112.1,-14"
         style="fill:#fcf0f0;fill-opacity:1;fill-rule:nonzero;stroke:none"
         id="path172" /><path
         d="m 18000.2,14873 c -0.3,-61.6 180.5,-112.3 403.6,-113.2 223.2,-0.9 404.3,48.3 404.6,109.9 0.2,61.6 -180.5,112.3 -403.7,113.2 -223.1,0.9 -404.3,-48.3 -404.5,-109.9"
         style="fill:#fcf0f0;fill-opacity:1;fill-rule:nonzero;stroke:none"
         id="path174" /><path
         d="m 17952.3,14848.7 c -0.3,-61.6 180.5,-112.3 403.6,-113.2 223.2,-0.9 404.4,48.3 404.6,109.9 0.3,61.6 -180.5,112.3 -403.6,113.2 -223.2,0.9 -404.4,-48.3 -404.6,-109.9"
         style="fill:#869edb;fill-opacity:1;fill-rule:nonzero;stroke:none"
         id="path176" /><path
         d="m 18040.9,14823.6 c -0.2,-49.8 154.4,-90.8 345.4,-91.6 191,-0.7 346,39 346.2,88.8 0.2,49.7 -154.5,90.7 -345.5,91.5 -190.9,0.8 -345.9,-38.9 -346.1,-88.7"
         style="fill:#fcf0f0;fill-opacity:1;fill-rule:nonzero;stroke:none"
         id="path178" /><path
         d="m 17999.9,14803.9 c -0.2,-49.7 154.5,-90.7 345.4,-91.5 191,-0.8 346,38.9 346.2,88.7 0.2,49.8 -154.5,90.8 -345.4,91.6 -191,0.7 -346,-39 -346.2,-88.8"
         style="fill:#869edb;fill-opacity:1;fill-rule:nonzero;stroke:none"
         id="path180" /><path
         d="m 18171.9,14787.3 c -0.1,-14.2 96,-26.2 214.5,-26.7 118.6,-0.5 214.7,10.7 214.8,25 0,14.2 -96,26.2 -214.6,26.7 -118.5,0.5 -214.7,-10.7 -214.7,-25"
         style="fill:#fcf0f0;fill-opacity:1;fill-rule:nonzero;stroke:none"
         id="path182" /><path
         d="m 17971.3,14322.2 c -0.1,-32.2 94.3,-58.6 210.9,-59.1 116.6,-0.5 211.3,25.2 211.4,57.4 0.1,32.2 -94.3,58.7 -210.9,59.1 -116.6,0.5 -211.3,-25.2 -211.4,-57.4"
         style="fill:#fcf0f0;fill-opacity:1;fill-rule:nonzero;stroke:none"
         id="path184" /><path
         d="m 17946.3,14309.5 c -0.2,-32.2 94.3,-58.7 210.9,-59.1 116.6,-0.5 211.3,25.2 211.4,57.4 0.1,32.2 -94.3,58.7 -210.9,59.1 -116.7,0.5 -211.3,-25.2 -211.4,-57.4"
         style="fill:#869edb;fill-opacity:1;fill-rule:nonzero;stroke:none"
         id="path186" /><path
         d="m 17992.6,14296.4 c -0.2,-26 80.7,-47.4 180.4,-47.8 99.8,-0.5 180.8,20.3 180.9,46.3 0.1,26 -80.7,47.4 -180.5,47.9 -99.8,0.4 -180.7,-20.4 -180.8,-46.4"
         style="fill:#fcf0f0;fill-opacity:1;fill-rule:nonzero;stroke:none"
         id="path188" /><path
         d="m 17971.1,14286.1 c -0.1,-26 80.7,-47.4 180.5,-47.8 99.8,-0.4 180.8,20.3 180.9,46.3 0.1,26.1 -80.7,47.5 -180.5,47.9 -99.8,0.4 -180.8,-20.4 -180.9,-46.4"
         style="fill:#869edb;fill-opacity:1;fill-rule:nonzero;stroke:none"
         id="path190" /><path
         d="m 18061,14277.4 c 0,-7.4 50.2,-13.7 112.1,-13.9 62,-0.3 112.2,5.6 112.2,13 0.1,7.5 -50.1,13.7 -112.1,14 -61.9,0.2 -112.2,-5.6 -112.2,-13.1"
         style="fill:#fcf0f0;fill-opacity:1;fill-rule:nonzero;stroke:none"
         id="path192" /><path
         d="m 13840.9,14975.9 c 212.6,32.7 255.6,44.1 527.5,56.5 l 107.1,-429.9 c -457.7,-56.9 -786.4,-179.8 -847.5,-242 l -365.7,445.5 c 34.4,29.5 187.7,109.4 578.6,169.9"
         style="fill:#869edb;fill-opacity:1;fill-rule:nonzero;stroke:none"
         id="path194" /><path
         d="m 14267.7,15026.3 c 0,0 575.7,44.3 780.4,50.7 l -780.7,-113.9 0.3,63.2"
         style="fill:#869edb;fill-opacity:1;fill-rule:nonzero;stroke:none"
         id="path196" /><path
         d="m 14263.4,14925.5 1.9,62.7 c 5.4,0.5 566.3,39.7 750.6,45.4 -5.9,0 -752.5,-108.1 -752.5,-108.1"
         style="fill:#869edb;fill-opacity:1;fill-rule:nonzero;stroke:none"
         id="path198" /><path
         d="m 14259.4,14887.9 3.5,62.1 c 10.7,1.1 557,35.1 720.8,40.2 -11.9,-0.1 -724.3,-102.3 -724.3,-102.3"
         style="fill:#869edb;fill-opacity:1;fill-rule:nonzero;stroke:none"
         id="path200" /><path
         d="m 14255.4,14850.2 5.1,61.7 c 16.1,1.6 547.6,30.5 691,35 -17.9,-0.2 -696.1,-96.7 -696.1,-96.7"
         style="fill:#869edb;fill-opacity:1;fill-rule:nonzero;stroke:none"
         id="path202" /><path
         d="m 14251.4,14812.6 6.7,61.2 c 21.5,2.1 538.3,25.8 661.1,29.7 -23.8,-0.3 -667.8,-90.9 -667.8,-90.9"
         style="fill:#869edb;fill-opacity:1;fill-rule:nonzero;stroke:none"
         id="path204" /><path
         d="m 14247.4,14775.9 8.3,60.8 c 26.9,2.6 528.9,21.1 631.3,24.3 -29.8,-0.2 -639.6,-85.1 -639.6,-85.1"
         style="fill:#869edb;fill-opacity:1;fill-rule:nonzero;stroke:none"
         id="path206" /><path
         d="m 14243.3,14738.4 10,60.3 c 32.2,3.1 519.6,16.6 601.5,19.2 -35.7,-0.4 -611.5,-79.5 -611.5,-79.5"
         style="fill:#869edb;fill-opacity:1;fill-rule:nonzero;stroke:none"
         id="path208" /><path
         d="m 14239.3,14701 11.6,59.8 c 37.6,3.6 510.2,11.9 571.7,13.9 -41.7,-0.4 -583.3,-73.7 -583.3,-73.7"
         style="fill:#869edb;fill-opacity:1;fill-rule:nonzero;stroke:none"
         id="path210" /><path
         d="m 14235.3,14663.5 13.1,59.4 c 43.1,4.1 501,7.3 541.9,8.6 -47.6,-0.5 -555,-68 -555,-68"
         style="fill:#869edb;fill-opacity:1;fill-rule:nonzero;stroke:none"
         id="path212" /><path
         d="m 14231.3,14626.1 14.7,58.9 c 48.5,4.6 491.6,2.6 512.1,3.3 -53.6,-0.5 -526.8,-62.2 -526.8,-62.2"
         style="fill:#869edb;fill-opacity:1;fill-rule:nonzero;stroke:none"
         id="path214" /><path
         d="m 14227.3,14586.7 c 0,0 439.1,55.9 498.6,56.4 0,0 -428.5,7.2 -482.3,2 l -16.3,-58.4"
         style="fill:#869edb;fill-opacity:1;fill-rule:nonzero;stroke:none"
         id="path216" /><path
         d="m 17130.5,14962.4 c -212.3,34.5 -255.2,46.3 -527,60.8 l -110.6,-428.9 c 457.2,-60.7 784.9,-186.3 845.4,-249 l 369.4,442.5 c -34.2,29.8 -186.8,110.9 -577.2,174.6"
         style="fill:#869edb;fill-opacity:1;fill-rule:nonzero;stroke:none"
         id="path218" /><path
         d="m 16704.1,15016.3 c 0,0 -575.3,49 -780,57.1 l 779.8,-120.2 0.2,63.1"
         style="fill:#869edb;fill-opacity:1;fill-rule:nonzero;stroke:none"
         id="path220" /><path
         d="m 16707.6,14915.5 c 0,0 -745.6,114.2 -751.6,114.3 184.2,-7.3 744.8,-51.1 750.2,-51.6 l 1.4,-62.7"
         style="fill:#869edb;fill-opacity:1;fill-rule:nonzero;stroke:none"
         id="path222" /><path
         d="m 16711.3,14877.8 c 0,0 -711.5,108.1 -723.4,108.3 163.7,-6.4 709.7,-44.9 720.4,-46.1 l 3,-62.2"
         style="fill:#869edb;fill-opacity:1;fill-rule:nonzero;stroke:none"
         id="path224" /><path
         d="m 16715,14840.1 c 0,0 -677.4,102.1 -695.3,102.4 143.3,-5.7 674.6,-38.9 690.7,-40.6 l 4.6,-61.8"
         style="fill:#869edb;fill-opacity:1;fill-rule:nonzero;stroke:none"
         id="path226" /><path
         d="m 16718.7,14802.5 c 0,0 -643.3,95.9 -667.1,96.3 122.8,-4.8 639.4,-32.8 660.9,-35 l 6.2,-61.3"
         style="fill:#869edb;fill-opacity:1;fill-rule:nonzero;stroke:none"
         id="path228" /><path
         d="m 16722.4,14764.8 c 0,0 -609.2,89.9 -638.9,90.4 102.3,-4.1 604.2,-26.7 631.1,-29.6 l 7.8,-60.8"
         style="fill:#869edb;fill-opacity:1;fill-rule:nonzero;stroke:none"
         id="path230" /><path
         d="m 16726.1,14727.1 c 0,0 -575,83.8 -610.7,84.4 81.8,-3.2 569,-20.6 601.3,-24 l 9.4,-60.4"
         style="fill:#869edb;fill-opacity:1;fill-rule:nonzero;stroke:none"
         id="path232" /><path
         d="m 16729.8,14689.4 c 0,0 -540.9,77.8 -582.6,78.5 61.4,-2.4 534,-14.6 571.6,-18.5 l 11,-60"
         style="fill:#869edb;fill-opacity:1;fill-rule:nonzero;stroke:none"
         id="path234" /><path
         d="m 16733.5,14651.8 c 0,0 -506.8,71.6 -554.4,72.4 40.9,-1.6 498.8,-8.5 541.8,-13 l 12.6,-59.4"
         style="fill:#869edb;fill-opacity:1;fill-rule:nonzero;stroke:none"
         id="path236" /><path
         d="m 16737.3,14614.1 c 0,0 -472.8,65.5 -526.3,66.5 20.4,-0.8 463.6,-2.4 512,-7.5 l 14.3,-59"
         style="fill:#869edb;fill-opacity:1;fill-rule:nonzero;stroke:none"
         id="path238" /><path
         d="m 16741,14576.4 c 0,0 -438.7,59.5 -498.2,60.5 0,0 428.5,3.7 482.3,-1.9 l 15.9,-58.6"
         style="fill:#869edb;fill-opacity:1;fill-rule:nonzero;stroke:none"
         id="path240" /><path
         d="m 14267.9,15080.2 c 0,0 -116.8,-332.9 27.5,-510.7 0,0 -325.3,188.5 -335.4,464.6 l 307.9,46.1"
         style="fill:#fcf0f0;fill-opacity:1;fill-rule:nonzero;stroke:none"
         id="path242" /><path
         d="m 17355.6,14383 c -0.6,-153.7 -839.4,-274.9 -1873.4,-270.7 -1034,4.2 -1871.8,132.3 -1871.2,286 0.7,153.7 839.4,274.9 1873.5,270.6 1034,-4.2 1871.8,-132.2 1871.1,-285.9"
         style="fill:#869edb;fill-opacity:1;fill-rule:nonzero;stroke:none"
         id="path244" /><path
         d="m 16605.7,14382.9 c -0.4,-97.9 -503.2,-175.2 -1123.1,-172.6 -619.9,2.5 -1122.1,83.9 -1121.7,181.8 0.4,97.8 503.2,175.1 1123.1,172.6 619.9,-2.6 1122.1,-84 1121.7,-181.8"
         style="fill:#fcf0f0;fill-opacity:1;fill-rule:nonzero;stroke:none"
         id="path246" /><path
         d="m 11175.2,14660.1 c -0.1,-16.8 -87,-30.1 -194.1,-29.7 -107.2,0.5 -194,14.4 -193.9,31.3 0.1,16.8 87,30 194.1,29.6 107.1,-0.4 193.9,-14.4 193.9,-31.2"
         style="fill:#fcf0f0;fill-opacity:1;fill-rule:nonzero;stroke:none"
         id="path248" /><path
         d="m 19793.5,14624.8 c 0,-16.8 86.8,-30.8 193.9,-31.2 107.1,-0.4 194,12.8 194.1,29.6 0.1,16.9 -86.7,30.8 -193.9,31.3 -107.1,0.4 -194,-12.9 -194.1,-29.7"
         style="fill:#fcf0f0;fill-opacity:1;fill-rule:nonzero;stroke:none"
         id="path250" /><path
         d="m 15782.8,18606.9 c 0,0 846.5,1.8 1371.4,-844.1 37.9,-61.2 -16.8,-137.9 -86.8,-121 -283.3,68.4 -865.7,181.1 -1511,144.9 0,0 444.9,115.1 1363.2,-41.5 71.2,-12.2 120.8,68.3 78.3,126.7 -172,236.5 -565,659.5 -1215.1,735"
         style="fill:#869edb;fill-opacity:1;fill-rule:nonzero;stroke:none"
         id="path252" /><path
         d="m 14389.8,16558.8 c -2317.7,-346.5 -2713.8,-674.8 -3128.5,-852.9 -435.8,-187.1 -740.3,-419.5 -1058.3,-713.9 226.6,65.2 701.9,250.9 1026.3,310.7 603.2,111.3 2280.9,272.2 3052.1,327.1 0,0 -1760.3,-111.5 -1734.9,176.1 32,363.8 1843.3,752.9 1843.3,752.9"
         style="fill:#869edb;fill-opacity:1;fill-rule:nonzero;stroke:none"
         id="path254" /><path
         d="m 20743.3,14992.1 c -205.6,59.2 -615.5,217.3 -932.5,290.9 -32.3,7.4 -63.5,14.1 -93.6,19.7 -13.7,2.5 -28,5.3 -43.1,7.8 -632.4,110.2 -2234.3,263.8 -2994.1,318.3 171.9,-9.8 1744,-94.7 1719.9,177.2 -31.5,358.1 -1787,740.6 -1841.9,752.6 1569.9,-234.6 2257.9,-461.4 2667.1,-638.2 80.4,-34.8 149.7,-67.6 213.2,-98.2 90.4,-43.3 168.3,-82.4 246.9,-116.2 435.8,-187.4 740.1,-419.5 1058.1,-713.9"
         style="fill:#869edb;fill-opacity:1;fill-rule:nonzero;stroke:none"
         id="path256" /><path
         d="m 19977.2,15200.1 c 0,0 15.5,-2.6 44.8,-7.5 29.1,-5.4 72,-12.7 126.1,-24.5 54.1,-11.7 119.9,-26.3 194.4,-47.5 74.5,-21.2 158.5,-47 247.1,-86.6 44.3,-19.8 89.8,-43 134.8,-73.7 22.5,-15.5 44.5,-33.5 65,-55.5 20.3,-21.8 39.6,-48.6 50.4,-82.5 5.6,-17.1 8.3,-34.4 7.7,-54.6 -0.2,-3.6 -0.1,-6.4 -0.5,-10.7 l -2.4,-15.4 c -1.9,-10.2 -4.4,-18.2 -7.5,-26.9 -12.7,-33.8 -33.1,-61.9 -55.5,-85.2 -45.2,-46.9 -98.4,-79.8 -152.6,-109.3 -54.5,-29.4 -111.4,-54 -169.4,-76.8 -58,-22.7 -117.4,-43 -177.8,-61.1 -120.6,-36.4 -244.3,-67.1 -368.5,-94.5 -124.4,-26.3 -249.2,-49.5 -372.4,-69 -123.2,-20.1 -244.9,-35.5 -362.7,-50.1 -117.7,-14.9 -231.9,-25.6 -340.1,-35.3 -108.2,-10.1 -210.7,-17.2 -305.3,-23 -94.6,-6.3 -181.4,-10.2 -258.3,-13.3 -77,-3.4 -144.1,-4.8 -199.4,-6.2 -55.2,-1.4 -98.7,-1.4 -128.3,-1.8 -29.6,0 -45.4,-0.1 -45.4,-0.1 0,0 15.6,2.2 44.9,6.4 29.4,4 72.4,9.8 127.2,17.2 109.4,14.5 265.6,35.3 453.2,60.2 93.5,12.9 194.9,26.8 302.1,41.6 107.1,15.1 219.8,32.2 336.4,49.6 116.5,17.5 236.4,38.3 358.1,59.3 121.6,21.7 244.8,44.8 367.1,71.2 122.4,25.8 244,54.6 361.4,88.8 116.9,34.8 231.8,71.5 332.9,122 50.4,25 97.3,54.1 133.3,87.4 18,16.6 31.5,34.9 39.5,52.8 1.8,4.3 3.6,9.5 4.5,12.9 0.4,1.6 0.8,3.2 1.4,4.8 0.5,2.6 0.7,6.7 1,9.9 0.6,7.3 0.1,17.4 -2.5,26.2 -4.5,18.2 -15.7,37.1 -30.3,54.3 -14.5,17.4 -32.1,33.3 -50.5,48.3 -37.3,29.5 -78.3,54.4 -119,76 -81.7,42.9 -161.4,75.8 -232.6,103.2 -71.5,26.9 -134.7,48.9 -187,66.1 -52.4,17.2 -93.7,30.6 -122,39.3 -28.3,8.9 -43.3,13.6 -43.3,13.6"
         style="fill:#fcf0f0;fill-opacity:1;fill-rule:nonzero;stroke:none"
         id="path258" /><path
         d="m 11245.4,15131.6 c 0,0 22.4,564.7 538.4,845.3 l -69.1,0.2 c 0,0 -535.2,-247.2 -613.6,-875.6 l 144.3,30.1"
         style="fill:#fcf0f0;fill-opacity:1;fill-rule:nonzero;stroke:none"
         id="path260" /><path
         d="m 19716.9,15096.9 c 0,0 -17.8,565 -531.5,849.7 l 69.1,-0.3 c 0,0 533.2,-251.6 606.5,-880.6 l -144.1,31.2"
         style="fill:#fcf0f0;fill-opacity:1;fill-rule:nonzero;stroke:none"
         id="path262" /><path
         d="m 20755.1,14992.1 -113.2,36.8 10.6,-18.4 95.5,-59.5 c 0,0 31.9,-8.2 29.5,0 -2.3,8.3 -22.4,41.1 -22.4,41.1"
         style="fill:#869edb;fill-opacity:1;fill-rule:nonzero;stroke:none"
         id="path264" /><path
         d="m 14045.7,14329.4 -999.2,-4307.7 -999.3,-4307.7 578.5,2197.1 578.4,2197.1 1157,4394.3 -315.4,-173.1"
         style="fill:#869edb;fill-opacity:1;fill-rule:nonzero;stroke:none"
         id="path266" /><path
         d="m 16921,14329.4 999.2,-4307.7 999.3,-4307.7 -578.5,2197.1 -578.5,2197.1 -1156.9,4394.3 315.4,-173.1"
         style="fill:#869edb;fill-opacity:1;fill-rule:nonzero;stroke:none"
         id="path268" /><path
         d="M 10622.3,8248.9 V 9975.7 L 9893.51,8248.9 Z m 0,-2065.8 V 7248.6 H 8843.8 v 936 l 1705.1,4032.5 h 1140.9 V 8248.9 H 12126 V 7248.6 h -436.2 V 6183.1 h -1067.5"
         style="fill:#869edb;fill-opacity:1;fill-rule:nonzero;stroke:none"
         id="path270" /><path
         d="m 15903.4,11051.7 c -27.3,0 -53.2,-4.7 -78.9,-14.5 -60.6,-22.8 -120.7,-96.8 -173.6,-213.8 l -941.6,-2082.3 c -52.9,-117.1 -68.8,-211 -46,-271.6 23.6,-62.4 71.9,-109.4 147.8,-143.7 44.7,-20.2 87.3,-30.5 126.6,-30.5 v 0 c 27.4,0 53.2,4.8 78.9,14.5 60.7,22.8 120.7,96.8 173.6,213.8 l 941.7,2082.4 c 52.9,116.9 68.7,210.8 45.8,271.5 -23.5,62.4 -71.8,109.5 -147.7,143.8 -44.6,20.1 -87.2,30.4 -126.6,30.4 z m -886,-3549 c -162.8,0 -338.4,42.1 -521.9,125.1 -317.2,143.4 -523.4,347.6 -612.8,606.8 -88.9,257.4 -58.3,555.4 91,885.6 l 906.7,2005.2 c 149.3,330.1 352.8,549.9 604.9,653.2 106.4,43.6 220.2,65.7 338.4,65.7 162.8,0 338.4,-42.1 521.9,-125.1 317.1,-143.3 523.2,-347.5 612.8,-606.7 88.9,-257.6 58.3,-555.6 -90.9,-885.6 l -906.8,-2005.3 c -149.3,-330.1 -352.8,-549.9 -605,-653.2 -106.3,-43.6 -220.2,-65.7 -338.3,-65.7"
         style="fill:#869edb;fill-opacity:1;fill-rule:nonzero;stroke:none"
         id="path272" /><path
         d="m 20622.5,8248.9 v 1726.8 l -728.8,-1726.8 z m 0,-2065.8 V 7248.6 H 18844 v 936 l 1705.1,4032.5 H 21690 V 8248.9 h 436.2 V 7248.6 H 21690 V 6183.1 h -1067.5"
         style="fill:#869edb;fill-opacity:1;fill-rule:nonzero;stroke:none"
         id="path274" /><path
         d="m 11703.3,4691.2 c 0.5,9.4 1,19.8 1.5,31.2 0.5,11.4 0.8,23.1 0.8,35.1 0,11.9 -0.3,23.5 -0.8,34.7 -0.5,11.2 -1,21.2 -1.5,30 -1.1,13 -3.8,25 -8.2,35.9 -4.4,10.9 -10.7,20.4 -18.7,28.4 -8.1,8.1 -18.1,14.5 -30.1,19.1 -11.9,4.7 -26,7.1 -42.1,7.1 -16.1,0 -30.1,-2.4 -42.1,-7.1 -11.9,-4.6 -21.9,-11 -30,-19.1 -8.1,-8 -14.3,-17.5 -18.7,-28.4 -4.4,-10.9 -7.2,-22.9 -8.2,-35.9 -1,-8.8 -1.7,-18.8 -1.9,-30 -0.3,-11.2 -0.4,-22.8 -0.4,-34.7 0,-12 0.1,-23.7 0.4,-35.1 0.2,-11.4 0.9,-21.8 1.9,-31.2 2.1,-26 11,-47.5 26.9,-64.7 15.9,-17.2 39.9,-25.7 72.1,-25.7 32.3,0 56.2,8.5 71.8,25.7 15.6,17.2 24.7,38.7 27.3,64.7 z m -342.4,134.9 c 1.6,29.1 8,56.5 19.2,82.3 11.1,25.7 27,48.1 47.5,67 20.6,19 45.5,34.1 74.9,45.3 29.3,11.1 63.3,16.7 101.7,16.7 38,0 71.8,-5.6 101.4,-16.7 29.6,-11.2 54.7,-26.3 75.2,-45.3 20.6,-18.9 36.4,-41.3 47.6,-67 11.2,-25.8 17.6,-53.2 19.1,-82.3 1,-22.3 1.6,-45.7 1.6,-70.2 0,-24.4 -0.6,-47.3 -1.6,-68.6 -1.5,-29.1 -7.9,-56.5 -19.1,-82.2 -11.2,-25.8 -27,-48.3 -47.6,-67.5 -20.5,-19.2 -45.6,-34.3 -75.2,-45.2 -29.6,-10.9 -63.4,-16.4 -101.4,-16.4 -38.4,0 -72.4,5.5 -101.7,16.4 -29.4,10.9 -54.3,26 -74.9,45.2 -20.5,19.2 -36.4,41.7 -47.5,67.5 -11.2,25.7 -17.6,53.1 -19.2,82.2 -1,21.3 -1.5,44.2 -1.5,68.6 0,24.5 0.5,47.9 1.5,70.2"
         style="fill:#869edb;fill-opacity:1;fill-rule:nonzero;stroke:none"
         id="path276" /><path
         d="m 12052.6,4660 c 1.5,-19.7 8.7,-35.2 21.4,-46.4 12.7,-11.2 29.5,-16.7 50.3,-16.7 20.8,0 37.6,5.5 50.3,16.7 12.7,11.2 19.9,26.7 21.4,46.4 1.1,7.8 1.6,16.7 1.6,26.5 0,9.9 -0.5,18.8 -1.6,26.6 -1.5,19.7 -8.7,35.2 -21.4,46.3 -12.7,11.2 -29.5,16.8 -50.3,16.8 -20.8,0 -37.6,-5.6 -50.3,-16.8 -12.7,-11.1 -19.9,-26.6 -21.4,-46.3 -1.1,-7.8 -1.6,-16.7 -1.6,-26.6 0,-9.8 0.5,-18.7 1.6,-26.5 z m 283.8,56.2 c 0.5,-7.8 0.8,-17.8 0.8,-30 0,-12.3 -0.3,-22.3 -0.8,-30.1 -1,-24.9 -6.8,-48.3 -17.1,-70.1 -10.5,-21.9 -24.7,-41 -42.9,-57.4 -18.2,-16.3 -40.2,-29.2 -65.9,-38.6 -25.8,-9.3 -54.5,-14 -86.2,-14 -31.7,0 -60.4,4.7 -86.1,14 -25.8,9.4 -47.8,22.3 -65.9,38.6 -18.2,16.4 -32.5,35.5 -42.9,57.4 -10.4,21.8 -16.1,45.2 -17.2,70.1 -0.5,7.8 -0.8,17.8 -0.8,30.1 0,12.2 0.3,22.2 0.8,30 0.5,24.9 6,48.3 16.4,70.2 10.4,21.8 24.8,40.9 43.3,57.3 18.4,16.3 40.5,29.3 66.3,38.9 25.7,9.7 54.4,14.5 86.1,14.5 31.7,0 60.4,-4.8 86.2,-14.5 25.7,-9.6 47.8,-22.6 66.3,-38.9 18.4,-16.4 32.7,-35.5 42.8,-57.3 10.2,-21.9 15.8,-45.3 16.8,-70.2"
         style="fill:#869edb;fill-opacity:1;fill-rule:nonzero;stroke:none"
         id="path278" /><path
         d="m 12689.6,4664.7 c 1.6,14.6 1.6,29.1 0,43.7 -1.5,18.2 -7.5,34 -17.9,47.5 -10.4,13.5 -27.8,20.3 -52.2,20.3 -11.5,0 -21.4,-1.8 -29.7,-5.4 -8.3,-3.7 -15.2,-8.5 -20.6,-14.5 -5.5,-6 -9.8,-12.6 -12.9,-19.9 -3.1,-7.2 -5.2,-14.8 -6.2,-22.6 -1.1,-7.8 -1.6,-16.9 -1.6,-27.3 0,-10.4 0.5,-19.5 1.6,-27.2 1,-7.8 3.1,-15.4 6.2,-22.7 3.1,-7.3 7.4,-13.9 12.9,-19.8 5.4,-6 12.3,-10.8 20.6,-14.5 8.3,-3.6 18.2,-5.4 29.7,-5.4 24.4,0 41.8,6.7 52.2,20.2 10.4,13.6 16.4,29.4 17.9,47.6 z m -35.1,-188.7 c -15,0 -28.3,1.6 -39.7,4.7 -11.5,3.1 -21.3,7 -29.7,11.7 -8.3,4.7 -15.3,9.7 -21,15.2 -5.7,5.4 -10.4,10.5 -14,15.2 v -166.1 c 0,-5.7 -2.1,-10.6 -6.3,-14.8 -4.1,-4.2 -9.1,-6.2 -14.8,-6.2 h -98.2 c -5.8,0 -10.7,2 -14.9,6.2 -4.1,4.2 -6.2,9.1 -6.2,14.8 v 511.5 c 0,5.7 2.1,10.7 6.2,14.8 4.2,4.2 9.1,6.3 14.9,6.3 h 94.3 c 5.7,0 10.7,-2.1 14.8,-6.3 4.2,-4.1 6.3,-9.1 6.3,-14.8 v -17.9 c 4.6,5.2 9.7,10.6 15.2,16.4 5.4,5.7 12.2,10.7 20.2,15.2 8.1,4.4 18,8 29.7,10.9 11.7,2.8 26.1,4.3 43.2,4.3 23.4,0 45.5,-3.5 66.3,-10.6 20.8,-7 39,-17.9 54.6,-32.7 15.6,-14.8 28.2,-33.4 37.8,-55.8 9.6,-22.3 15,-48.8 16,-79.5 0.5,-7.8 0.8,-18.3 0.8,-31.6 0,-13.2 -0.3,-23.8 -0.8,-31.6 -1,-30.6 -6.4,-57.1 -16,-79.5 -9.6,-22.3 -22.2,-40.9 -37.8,-55.7 -15.6,-14.8 -33.8,-25.9 -54.6,-33.2 -20.8,-7.2 -42.9,-10.9 -66.3,-10.9"
         style="fill:#869edb;fill-opacity:1;fill-rule:nonzero;stroke:none"
         id="path280" /><path
         d="m 13133.3,4605.4 c 0,5.8 -1.9,10.2 -5.8,13.3 -3.9,3.1 -10.6,5.7 -19.9,7.8 -9.4,2.1 -21.7,4.2 -37.1,6.2 -15.3,2.1 -34.4,5.2 -57.3,9.4 -39.5,7.3 -69.9,21.8 -91.2,43.7 -21.3,21.8 -32,50.4 -32,85.7 0,17.7 4.4,34.1 13.3,49.2 8.8,15 21.2,28.3 37,39.7 15.9,11.5 35,20.4 57.3,26.9 22.4,6.5 47.3,9.8 74.9,9.8 27,0 52,-3.3 74.8,-9.8 22.9,-6.5 42.7,-14.8 59.3,-24.9 16.6,-10.2 29.8,-21.9 39.4,-35.1 9.6,-13.3 14.9,-26.4 16,-39.4 0.5,-5.7 -1.5,-10.7 -5.9,-14.8 -4.4,-4.2 -9.5,-6.2 -15.2,-6.2 h -92.8 c -5.7,0 -10.3,1.2 -13.6,3.9 -3.4,2.5 -7.4,5.4 -12.1,8.5 -4.7,3.2 -10.8,6 -18.3,8.6 -7.6,2.6 -18.1,3.9 -31.6,3.9 -12,0 -22,-1.7 -30,-5.1 -8.1,-3.3 -12.1,-8.9 -12.1,-16.7 0,-5.8 1.3,-10.2 3.9,-13.3 2.6,-3.1 7.8,-5.6 15.6,-7.4 7.8,-1.8 18.7,-3.8 32.7,-5.8 14.1,-2.1 32.5,-5 55.4,-8.6 47.3,-7.8 81.7,-23.8 103.3,-48 21.6,-24.1 32.4,-51.8 32.4,-83 0,-17.7 -4.5,-34.2 -13.3,-49.5 -8.8,-15.4 -21.8,-28.9 -39,-40.6 -17.1,-11.7 -37.9,-20.9 -62.4,-27.7 -24.4,-6.7 -52.2,-10.1 -83.4,-10.1 -31.2,0 -58.6,3.5 -82.3,10.5 -23.6,7.1 -43.5,16 -59.6,26.9 -16.1,11 -28.5,22.9 -37.1,35.9 -8.5,13 -13.3,25.7 -14.4,38.2 -0.5,5.7 1.4,10.7 5.9,14.8 4.4,4.2 9.5,6.3 15.2,6.3 h 96.7 c 5.7,0 9.8,-1.5 12.4,-4.3 2.6,-2.9 6,-6 10.2,-9.4 4.1,-3.4 10.1,-6.5 17.9,-9.3 7.8,-2.9 19.5,-4.3 35.1,-4.3 15.6,0 29.1,2 40.5,6.2 11.5,4.2 17.2,10.1 17.2,17.9"
         style="fill:#869edb;fill-opacity:1;fill-rule:nonzero;stroke:none"
         id="path282" /><path
         d="m 13485,4504.9 c 0,-5.8 -2.1,-10.7 -6.3,-14.9 -4.1,-4.1 -9.1,-6.2 -14.8,-6.2 h -98.2 c -5.8,0 -10.7,2.1 -14.9,6.2 -4.1,4.2 -6.2,9.1 -6.2,14.9 v 78.7 c 0,5.7 2.1,10.7 6.2,14.8 4.2,4.2 9.1,6.3 14.9,6.3 h 98.2 c 5.7,0 10.7,-2.1 14.8,-6.3 4.2,-4.1 6.3,-9.1 6.3,-14.8 z m 0,167.6 c 0,-5.7 -2.1,-10.7 -6.3,-14.8 -4.1,-4.2 -9.1,-6.2 -14.8,-6.2 h -98.2 c -5.8,0 -10.7,2 -14.9,6.2 -4.1,4.1 -6.2,9.1 -6.2,14.8 v 336.1 c 0,5.7 2.1,10.6 6.2,14.8 4.2,4.1 9.1,6.2 14.9,6.2 h 98.2 c 5.7,0 10.7,-2.1 14.8,-6.2 4.2,-4.2 6.3,-9.1 6.3,-14.8 v -336.1"
         style="fill:#869edb;fill-opacity:1;fill-rule:nonzero;stroke:none"
         id="path284" /><path
         d="m 13896.7,4785.6 h 95.9 c 21.8,0 39.9,4.8 54.2,14.4 14.2,9.6 21.4,25.3 21.4,47.2 0,21.8 -7.2,37.5 -21.4,47.1 -14.3,9.7 -32.4,14.5 -54.2,14.5 h -95.9 z m 99.8,244 c 33.2,0 63.1,-3.7 89.6,-11.3 26.5,-7.5 49.2,-19 67.9,-34.3 18.7,-15.3 33.1,-34.4 43.3,-57.3 10.1,-22.9 15.2,-49.4 15.2,-79.5 0,-30.7 -5.1,-57.5 -15.2,-80.3 -10.2,-22.9 -24.6,-41.9 -43.3,-57 -18.7,-15 -41.4,-26.5 -67.9,-34.3 -26.5,-7.8 -56.4,-11.7 -89.6,-11.7 h -99.8 v -159 c 0,-5.8 -2.1,-10.7 -6.3,-14.9 -4.1,-4.1 -9.1,-6.2 -14.8,-6.2 h -102.1 c -5.8,0 -10.7,2.1 -14.9,6.2 -4.1,4.2 -6.2,9.1 -6.2,14.9 v 503.7 c 0,5.7 2.1,10.6 6.2,14.8 4.2,4.1 9.1,6.2 14.9,6.2 h 223"
         style="fill:#869edb;fill-opacity:1;fill-rule:nonzero;stroke:none"
         id="path286" /><path
         d="m 14419.1,4581.3 c 11.4,0 22.1,1.9 32,5.8 9.8,3.9 18.4,9.2 25.7,16 7.3,6.8 13,14.7 17.1,23.8 4.2,9.1 6.3,18.8 6.3,29.2 l -71.7,-10.9 c -14.1,-2.6 -25.4,-7 -34,-13.2 -8.5,-6.3 -12.8,-14.3 -12.8,-24.2 0,-9.9 3.2,-16.8 9.7,-20.7 6.5,-3.9 15.7,-5.8 27.7,-5.8 z m -177.8,17.9 c 0,34.3 13.1,62.6 39.4,85 26.2,22.3 69,38.7 128.3,49.1 l 91.2,15.6 c 0,12.5 -3.4,22.8 -10.1,30.8 -6.8,8.1 -18.5,12.1 -35.1,12.1 -12,0 -21.2,-1.7 -27.7,-5.1 -6.5,-3.3 -11.3,-6.3 -14.4,-8.9 -4.7,-4.2 -9.1,-6.8 -13.3,-7.8 -4.2,-1.1 -9.1,-1.6 -14.8,-1.6 h -99 c -5.2,0 -9.5,1.6 -12.9,4.7 -3.4,3.1 -4.8,7.3 -4.3,12.5 1,11.9 6.2,24.4 15.6,37.4 9.4,13 22.2,24.9 38.6,35.9 16.4,10.9 35.9,20 58.5,27.3 22.6,7.2 47.2,10.9 73.7,10.9 31.7,0 59.2,-3.9 82.6,-11.7 23.4,-7.8 42.8,-18.6 58.1,-32.4 15.3,-13.8 26.6,-30.1 33.9,-49.1 7.3,-19 10.9,-39.9 10.9,-62.8 v -236.2 c 0,-5.8 -2,-10.7 -6.2,-14.9 -4.2,-4.1 -9.1,-6.2 -14.8,-6.2 h -98.3 c -5.7,0 -10.6,2.1 -14.8,6.2 -4.1,4.2 -6.2,9.1 -6.2,14.9 v 21.8 c -12.5,-15.6 -28,-28 -46.4,-37 -18.5,-9.1 -42.8,-13.7 -72.9,-13.7 -22.4,0 -42.3,3.1 -59.7,9.4 -17.4,6.2 -31.9,14.8 -43.6,25.7 -11.7,10.9 -20.7,23.9 -26.9,39 -6.3,15.1 -9.4,31.4 -9.4,49.1"
         style="fill:#869edb;fill-opacity:1;fill-rule:nonzero;stroke:none"
         id="path288" /><path
         d="m 14851.1,4713.8 c -1.1,-7.8 -1.6,-14.1 -1.6,-19.1 0,-4.9 0.5,-11.3 1.6,-19.1 1.5,-18.2 7.9,-33.2 19.1,-45.2 11.1,-12 28.2,-17.9 51,-17.9 21.4,0 37.6,5.8 48.8,17.5 11.1,11.7 18,25.1 20.6,40.2 2.6,16.1 2.6,32.4 0,49.1 -2,15.1 -8.8,28.3 -20.2,39.8 -11.5,11.4 -27.8,17.1 -49.2,17.1 -22.3,0 -39.2,-5.8 -50.6,-17.5 -11.5,-11.7 -18,-26.7 -19.5,-44.9 z m 68.6,-284.6 c 19.7,0 37.1,4.6 52.2,13.7 15.1,9.1 22.6,22.7 22.6,40.9 v 54.6 c -4.6,-5.7 -9.7,-11.3 -15.2,-16.8 -5.4,-5.4 -12.2,-10.4 -20.2,-14.8 -8.1,-4.4 -18,-8.1 -29.7,-10.9 -11.7,-2.9 -26.1,-4.3 -43.2,-4.3 -23.4,0 -45.5,3.5 -66.3,10.5 -20.8,7 -39,17.8 -54.6,32.4 -15.6,14.5 -28.2,32.7 -37.8,54.6 -9.6,21.8 -15,47.5 -16,77.2 -0.5,7.8 -0.8,17 -0.8,27.6 0,10.7 0.3,19.9 0.8,27.7 1,29.7 6.4,55.5 16,77.6 9.6,22.1 22.2,40.3 37.8,54.6 15.6,14.3 33.8,25.1 54.6,32.4 20.8,7.2 42.9,10.9 66.3,10.9 17.1,0 31.9,-1.6 44.4,-4.7 12.5,-3.1 23.1,-7 32,-11.7 8.8,-4.7 16.1,-9.7 21.8,-15.2 5.7,-5.5 10.4,-10.5 14,-15.2 v 17.9 c 0,5.7 2.1,10.7 6.3,14.8 4.1,4.2 9.1,6.3 14.8,6.3 h 90.4 c 5.8,0 10.7,-2.1 14.9,-6.3 4.1,-4.1 6.2,-9.1 6.2,-14.8 v -379.7 c 0,-29.1 -5.3,-54.7 -16,-76.8 -10.6,-22.1 -25.3,-40.6 -44,-55.4 -18.8,-14.8 -41.1,-25.8 -67.1,-33.1 -26,-7.3 -54.6,-10.9 -85.8,-10.9 -40.5,0 -73.7,5 -99.4,15.2 -25.7,10.1 -45.9,22.3 -60.4,36.6 -14.6,14.3 -24.7,29.3 -30.4,44.9 -5.8,15.5 -8.9,29.1 -9.4,40.5 -0.5,5.7 1.4,10.7 5.9,14.8 4.4,4.2 9.4,6.2 15.2,6.2 h 101.3 c 10.9,0 19,-5.1 24.2,-15.5 3.6,-6.8 9.2,-12.8 16.8,-18 7.5,-5.2 20.1,-7.8 37.8,-7.8"
         style="fill:#869edb;fill-opacity:1;fill-rule:nonzero;stroke:none"
         id="path290" /><path
         d="m 15413.3,4791.8 c -21.9,0 -38.5,-6.5 -50,-19.5 -11.4,-13 -18.2,-27.5 -20.2,-43.7 h 140.3 c -2,16.2 -8.8,30.7 -20.2,43.7 -11.5,13 -28.1,19.5 -49.9,19.5 z m -70.2,-149.7 c 0,-12 2.2,-21.8 6.6,-29.6 4.4,-7.8 10,-14.1 16.8,-18.7 6.7,-4.7 14.3,-8 22.6,-9.8 8.3,-1.8 16.4,-2.7 24.2,-2.7 15.5,0 27.9,1.5 37,4.7 9.1,3.1 16.8,7.5 23,13.2 5.7,4.7 9.9,7.7 12.5,9 2.6,1.3 7,1.9 13.2,1.9 h 101.4 c 11.4,0 17.1,-5.7 17.1,-17.1 0,-6.3 -3.9,-15.8 -11.6,-28.5 -7.8,-12.7 -19.9,-25.7 -36.3,-39 -16.4,-13.2 -37.6,-24.8 -63.6,-34.7 -26,-9.8 -56.9,-14.8 -92.7,-14.8 -33.8,0 -63.9,4.8 -90.1,14.4 -26.3,9.6 -48.4,23.5 -66.3,41.8 -17.9,18.1 -31.4,40.2 -40.5,66.2 -9.1,26 -13.7,55.4 -13.7,88.1 0,30.2 4.6,58.1 13.7,83.9 9.1,25.7 22.6,47.9 40.5,66.6 17.9,18.7 40,33.4 66.3,44.1 26.2,10.6 56.3,16 90.1,16 37.9,0 70.3,-6.4 97,-19.1 26.8,-12.8 48.6,-29.3 65.5,-49.5 16.9,-20.3 29.1,-43.1 36.7,-68.3 7.5,-25.2 11.3,-50.3 11.3,-75.2 v -21.9 c 0,-5.7 -2.1,-10.6 -6.3,-14.8 -4.1,-4.1 -9.1,-6.2 -14.8,-6.2 h -259.6"
         style="fill:#869edb;fill-opacity:1;fill-rule:nonzero;stroke:none"
         id="path292" /><path
         d="m 16275.6,4504.9 c 0,-5.8 -2,-10.7 -6.2,-14.9 -4.2,-4.1 -9.1,-6.2 -14.8,-6.2 h -98.3 c -5.7,0 -10.6,2.1 -14.8,6.2 -4.1,4.2 -6.2,9.1 -6.2,14.9 v 197.2 c 0,22.4 -5.5,40.3 -16.4,53.8 -10.9,13.5 -28.1,20.3 -51.4,20.3 -23.4,0 -40.5,-6.8 -51.1,-20.3 -10.7,-13.5 -16,-31.4 -16,-53.8 v -197.2 c 0,-5.8 -2.1,-10.7 -6.2,-14.9 -4.2,-4.1 -9.1,-6.2 -14.9,-6.2 h -98.2 c -5.7,0 -10.7,2.1 -14.8,6.2 -4.2,4.2 -6.3,9.1 -6.3,14.9 v 363.3 c 0,5.7 2.1,10.7 6.3,14.8 4.1,4.2 9.1,6.3 14.8,6.3 h 94.3 c 5.8,0 10.7,-2.1 14.9,-6.3 4.1,-4.1 6.2,-9.1 6.2,-14.8 v -17.9 c 4.1,5.2 9.4,10.6 15.6,16.4 6.2,5.7 13.8,10.7 22.6,15.2 8.8,4.4 19.1,8 30.8,10.9 11.7,2.8 25.3,4.3 40.9,4.3 25,0 47.9,-3.5 68.7,-10.6 20.7,-7 38.6,-17.8 53.4,-32.3 14.8,-14.6 26.4,-33 34.7,-55.4 8.3,-22.3 12.4,-48.8 12.4,-79.5 v -214.4"
         style="fill:#869edb;fill-opacity:1;fill-rule:nonzero;stroke:none"
         id="path294" /><path
         d="m 16485.4,4660 c 1.6,-19.7 8.7,-35.2 21.4,-46.4 12.8,-11.2 29.5,-16.7 50.3,-16.7 20.8,0 37.6,5.5 50.3,16.7 12.8,11.2 19.9,26.7 21.5,46.4 1,7.8 1.5,16.7 1.5,26.5 0,9.9 -0.5,18.8 -1.5,26.6 -1.6,19.7 -8.7,35.2 -21.5,46.3 -12.7,11.2 -29.5,16.8 -50.3,16.8 -20.8,0 -37.5,-5.6 -50.3,-16.8 -12.7,-11.1 -19.8,-26.6 -21.4,-46.3 -1.1,-7.8 -1.6,-16.7 -1.6,-26.6 0,-9.8 0.5,-18.7 1.6,-26.5 z m 283.8,56.2 c 0.5,-7.8 0.8,-17.8 0.8,-30 0,-12.3 -0.3,-22.3 -0.8,-30.1 -1,-24.9 -6.7,-48.3 -17.1,-70.1 -10.4,-21.9 -24.7,-41 -42.9,-57.4 -18.2,-16.3 -40.2,-29.2 -65.9,-38.6 -25.7,-9.3 -54.5,-14 -86.2,-14 -31.7,0 -60.4,4.7 -86.1,14 -25.8,9.4 -47.7,22.3 -65.9,38.6 -18.2,16.4 -32.5,35.5 -42.9,57.4 -10.4,21.8 -16.1,45.2 -17.2,70.1 -0.5,7.8 -0.7,17.8 -0.7,30.1 0,12.2 0.2,22.2 0.7,30 0.6,24.9 6,48.3 16.4,70.2 10.4,21.8 24.8,40.9 43.3,57.3 18.4,16.3 40.5,29.3 66.3,38.9 25.7,9.7 54.4,14.5 86.1,14.5 31.7,0 60.5,-4.8 86.2,-14.5 25.7,-9.6 47.8,-22.6 66.3,-38.9 18.4,-16.4 32.7,-35.5 42.9,-57.3 10.1,-21.9 15.7,-45.3 16.7,-70.2"
         style="fill:#869edb;fill-opacity:1;fill-rule:nonzero;stroke:none"
         id="path296" /><path
         d="m 17025.8,4642.1 c 0,-12 2.6,-21.2 7.8,-27.7 5.2,-6.5 13.7,-9.7 25.7,-9.7 h 62.4 c 5.7,0 10.6,-2.1 14.8,-6.3 4.1,-4.1 6.2,-9.1 6.2,-14.8 v -78.7 c 0,-5.8 -2.1,-10.7 -6.2,-14.9 -4.2,-4.1 -9.1,-6.2 -14.8,-6.2 h -74.1 c -24.4,0 -46.7,3.5 -66.7,10.5 -20,7 -37,17.2 -51,30.4 -14.1,13.3 -25,29.4 -32.8,48.4 -7.8,19 -11.7,40.4 -11.7,64.3 v 131 h -57.7 c -5.7,0 -10.6,2.1 -14.8,6.3 -4.2,4.1 -6.2,9 -6.2,14.8 v 78.7 c 0,5.7 2,10.7 6.2,14.8 4.2,4.2 9.1,6.3 14.8,6.3 h 57.7 v 127.1 c 0,5.7 2.1,10.6 6.2,14.8 4.2,4.1 9.1,6.2 14.9,6.2 h 98.2 c 5.7,0 10.7,-2.1 14.8,-6.2 4.2,-4.2 6.3,-9.1 6.3,-14.8 v -127.1 h 88.1 c 5.7,0 10.6,-2.1 14.8,-6.3 4.1,-4.1 6.2,-9.1 6.2,-14.8 v -78.7 c 0,-5.8 -2.1,-10.7 -6.2,-14.8 -4.2,-4.2 -9.1,-6.3 -14.8,-6.3 h -88.1 v -126.3"
         style="fill:#869edb;fill-opacity:1;fill-rule:nonzero;stroke:none"
         id="path298" /><path
         d="m 17550.5,4889.3 h 95.9 c 5.8,0 10.7,-2.1 14.9,-6.3 4.1,-4.1 6.2,-9.1 6.2,-14.8 v -78.7 c 0,-5.8 -2.1,-10.7 -6.2,-14.8 -4.2,-4.2 -9.1,-6.3 -14.9,-6.3 h -95.9 v -263.5 c 0,-5.8 -2,-10.7 -6.2,-14.9 -4.2,-4.1 -9.1,-6.2 -14.8,-6.2 h -98.3 c -5.7,0 -10.6,2.1 -14.8,6.2 -4.1,4.2 -6.2,9.1 -6.2,14.9 v 263.5 h -53.8 c -5.7,0 -10.7,2.1 -14.8,6.3 -4.2,4.1 -6.3,9 -6.3,14.8 v 78.7 c 0,5.7 2.1,10.7 6.3,14.8 4.1,4.2 9.1,6.3 14.8,6.3 h 53.8 v 21 c 0,23.9 4.3,45.3 12.8,64 8.6,18.7 20.4,34.4 35.5,47.1 15.1,12.8 33,22.5 53.8,29.3 20.8,6.7 43.4,10.1 67.9,10.1 h 74 c 5.8,0 10.7,-2.1 14.9,-6.2 4.1,-4.2 6.2,-9.1 6.2,-14.8 V 4961 c 0,-5.7 -2.1,-10.6 -6.2,-14.8 -4.2,-4.2 -9.1,-6.2 -14.9,-6.2 h -70.1 c -12.5,0 -21.2,-3.2 -26.2,-9.4 -4.9,-6.2 -7.4,-14.3 -7.4,-24.2 v -17.1"
         style="fill:#869edb;fill-opacity:1;fill-rule:nonzero;stroke:none"
         id="path300" /><path
         d="m 17842.9,4660 c 1.6,-19.7 8.7,-35.2 21.5,-46.4 12.7,-11.2 29.5,-16.7 50.3,-16.7 20.8,0 37.5,5.5 50.3,16.7 12.7,11.2 19.9,26.7 21.4,46.4 1.1,7.8 1.6,16.7 1.6,26.5 0,9.9 -0.5,18.8 -1.6,26.6 -1.5,19.7 -8.7,35.2 -21.4,46.3 -12.8,11.2 -29.5,16.8 -50.3,16.8 -20.8,0 -37.6,-5.6 -50.3,-16.8 -12.8,-11.1 -19.9,-26.6 -21.5,-46.3 -1,-7.8 -1.5,-16.7 -1.5,-26.6 0,-9.8 0.5,-18.7 1.5,-26.5 z m 283.9,56.2 c 0.5,-7.8 0.8,-17.8 0.8,-30 0,-12.3 -0.3,-22.3 -0.8,-30.1 -1.1,-24.9 -6.8,-48.3 -17.2,-70.1 -10.4,-21.9 -24.7,-41 -42.9,-57.4 -18.2,-16.3 -40.1,-29.2 -65.9,-38.6 -25.7,-9.3 -54.4,-14 -86.1,-14 -31.7,0 -60.5,4.7 -86.2,14 -25.7,9.4 -47.7,22.3 -65.9,38.6 -18.2,16.4 -32.5,35.5 -42.9,57.4 -10.4,21.8 -16.1,45.2 -17.1,70.1 -0.5,7.8 -0.8,17.8 -0.8,30.1 0,12.2 0.3,22.2 0.8,30 0.5,24.9 6,48.3 16.4,70.2 10.4,21.8 24.8,40.9 43.2,57.3 18.5,16.3 40.6,29.3 66.3,38.9 25.7,9.7 54.5,14.5 86.2,14.5 31.7,0 60.4,-4.8 86.1,-14.5 25.8,-9.6 47.9,-22.6 66.3,-38.9 18.5,-16.4 32.8,-35.5 42.9,-57.3 10.1,-21.9 15.7,-45.3 16.8,-70.2"
         style="fill:#869edb;fill-opacity:1;fill-rule:nonzero;stroke:none"
         id="path302" /><path
         d="m 18196.2,4868.2 c 0,5.7 2,10.7 6.2,14.8 4.2,4.2 9.1,6.3 14.8,6.3 h 98.3 c 5.7,0 10.6,-2.1 14.8,-6.3 4.1,-4.1 6.2,-9.1 6.2,-14.8 v -197.3 c 0,-22.3 5,-40.2 14.8,-53.8 9.9,-13.5 26.3,-20.2 49.2,-20.2 22.8,0 39.1,6.7 48.7,20.2 9.6,13.6 14.4,31.5 14.4,53.8 v 197.3 c 0,5.7 2.1,10.7 6.3,14.8 4.1,4.2 9.1,6.3 14.8,6.3 h 98.2 c 5.7,0 10.7,-2.1 14.8,-6.3 4.2,-4.1 6.3,-9.1 6.3,-14.8 v -363.3 c 0,-5.8 -2.1,-10.7 -6.3,-14.9 -4.1,-4.1 -9.1,-6.2 -14.8,-6.2 h -90.4 c -5.8,0 -10.7,2.1 -14.8,6.2 -4.2,4.2 -6.3,9.1 -6.3,14.9 v 17.9 c -4.2,-5.7 -9.2,-11.3 -15.2,-16.8 -6,-5.4 -13.4,-10.4 -22.2,-14.8 -8.9,-4.4 -19.1,-8 -30.8,-10.9 -11.7,-2.8 -25.6,-4.3 -41.7,-4.3 -50.5,0 -90.6,14.3 -120.5,42.9 -29.9,28.6 -44.8,73.5 -44.8,134.9 v 214.4"
         style="fill:#869edb;fill-opacity:1;fill-rule:nonzero;stroke:none"
         id="path304" /><path
         d="m 19110,4504.9 c 0,-5.8 -2.1,-10.7 -6.2,-14.9 -4.2,-4.1 -9.1,-6.2 -14.8,-6.2 h -98.3 c -5.7,0 -10.6,2.1 -14.8,6.2 -4.2,4.2 -6.2,9.1 -6.2,14.9 v 197.2 c 0,22.4 -5.5,40.3 -16.4,53.8 -10.9,13.5 -28.1,20.3 -51.5,20.3 -23.4,0 -40.4,-6.8 -51,-20.3 -10.7,-13.5 -16,-31.4 -16,-53.8 v -197.2 c 0,-5.8 -2.1,-10.7 -6.3,-14.9 -4.1,-4.1 -9.1,-6.2 -14.8,-6.2 h -98.2 c -5.8,0 -10.7,2.1 -14.9,6.2 -4.1,4.2 -6.2,9.1 -6.2,14.9 v 363.3 c 0,5.7 2.1,10.7 6.2,14.8 4.2,4.2 9.1,6.3 14.9,6.3 h 94.3 c 5.7,0 10.7,-2.1 14.8,-6.3 4.2,-4.1 6.3,-9.1 6.3,-14.8 v -17.9 c 4.1,5.2 9.3,10.6 15.6,16.4 6.2,5.7 13.7,10.7 22.6,15.2 8.8,4.4 19.1,8 30.8,10.9 11.7,2.8 25.3,4.3 40.9,4.3 25,0 47.8,-3.5 68.6,-10.6 20.8,-7 38.6,-17.8 53.4,-32.3 14.9,-14.6 26.4,-33 34.7,-55.4 8.4,-22.3 12.5,-48.8 12.5,-79.5 v -214.4"
         style="fill:#869edb;fill-opacity:1;fill-rule:nonzero;stroke:none"
         id="path306" /><path
         d="m 19320.5,4708.4 c -1.5,-14.6 -1.5,-29.1 0,-43.7 1.6,-18.2 7.6,-34 18,-47.6 10.4,-13.5 27.8,-20.2 52.2,-20.2 11.5,0 21.3,1.8 29.7,5.4 8.3,3.7 15.2,8.5 20.6,14.5 5.5,5.9 9.8,12.5 12.9,19.8 3.1,7.3 5.2,14.9 6.2,22.7 1.1,7.7 1.6,16.8 1.6,27.2 0,10.4 -0.5,19.5 -1.6,27.3 -1,7.8 -3.1,15.4 -6.2,22.6 -3.1,7.3 -7.4,13.9 -12.9,19.9 -5.4,6 -12.3,10.8 -20.6,14.5 -8.4,3.6 -18.2,5.4 -29.7,5.4 -24.4,0 -41.8,-6.8 -52.2,-20.3 -10.4,-13.5 -16.4,-29.3 -18,-47.5 z m 35.1,188.7 c 15.1,0 28.4,-1.6 39.8,-4.7 11.4,-3.1 21.3,-7 29.6,-11.7 8.3,-4.7 15.4,-9.7 21.1,-15.2 5.7,-5.5 10.4,-10.5 14,-15.2 v 166.1 c 0,5.7 2.1,10.6 6.3,14.8 4.1,4.1 9.1,6.2 14.8,6.2 h 98.2 c 5.7,0 10.7,-2.1 14.8,-6.2 4.2,-4.2 6.3,-9.1 6.3,-14.8 v -511.5 c 0,-5.8 -2.1,-10.7 -6.3,-14.9 -4.1,-4.1 -9.1,-6.2 -14.8,-6.2 h -94.3 c -5.7,0 -10.7,2.1 -14.8,6.2 -4.2,4.2 -6.3,9.1 -6.3,14.9 v 17.9 c -4.7,-5.7 -9.7,-11.3 -15.2,-16.8 -5.4,-5.4 -12.2,-10.4 -20.3,-14.8 -8,-4.4 -17.9,-8 -29.6,-10.9 -11.7,-2.8 -26.1,-4.3 -43.3,-4.3 -23.3,0 -45.5,3.5 -66.2,10.5 -20.8,7.1 -39,18 -54.6,32.8 -15.6,14.8 -28.2,33.4 -37.8,55.7 -9.7,22.4 -15,48.9 -16,79.6 -0.5,7.8 -0.8,18.3 -0.8,31.6 0,13.2 0.3,23.7 0.8,31.5 1,30.7 6.3,57.2 16,79.6 9.6,22.3 22.2,40.9 37.8,55.7 15.6,14.8 33.8,25.9 54.6,33.2 20.7,7.2 42.9,10.9 66.2,10.9"
         style="fill:#869edb;fill-opacity:1;fill-rule:nonzero;stroke:none"
         id="path308" /><path
         d="m 16229.6,3188.9 h -1489.2 c -207.6,0 -376,168.3 -376,375.9 v 0 c 0,207.6 168.4,376 376,376 h 1489.2 c 207.6,0 376,-168.4 376,-376 v 0 c 0,-207.6 -168.4,-375.9 -376,-375.9"
         style="fill:#869edb;fill-opacity:1;fill-rule:nonzero;stroke:none"
         id="path310" /><path
         d="m 14890,3582.4 h 48 c 12,0 21.8,2.3 29.6,6.8 7.8,4.5 11.7,12.8 11.7,24.7 0,11.9 -3.9,20.1 -11.7,24.6 -7.8,4.6 -17.6,6.8 -29.6,6.8 h -48 z m 48,128.9 c 18.8,0 35.5,-2 50.2,-6 14.8,-3.9 27.3,-9.9 37.7,-17.8 10.3,-8 18.3,-18.1 23.8,-30.5 5.5,-12.3 8.3,-26.7 8.3,-43.1 0,-21.3 -4.4,-38.9 -13.2,-53 -8.8,-14 -21.3,-24.7 -37.4,-32.1 l 52.7,-101.2 c 0.9,-1.7 1.3,-3.3 1.3,-4.7 0,-2.5 -0.9,-4.7 -2.8,-6.6 -1.8,-1.8 -4,-2.7 -6.6,-2.7 h -57.8 c -5.7,0 -9.7,1.2 -12.1,3.8 -2.4,2.5 -4.4,5.1 -5.8,7.6 l -47.2,91.1 H 14890 V 3425 c 0,-3.1 -1.1,-5.8 -3.4,-8 -2.3,-2.3 -5,-3.4 -8.1,-3.4 h -55.7 c -3.1,0 -5.8,1.1 -8.1,3.4 -2.3,2.2 -3.4,4.9 -3.4,8 v 274.8 c 0,3.1 1.1,5.8 3.4,8.1 2.3,2.2 5,3.4 8.1,3.4 h 115.2"
         style="fill:#fcf0f0;fill-opacity:1;fill-rule:nonzero;stroke:none"
         id="path312" /><path
         d="m 15320,3481.6 c 3.1,0 5.8,-1.1 8.1,-3.4 2.2,-2.3 3.4,-5 3.4,-8.1 V 3425 c 0,-3.1 -1.2,-5.8 -3.4,-8 -2.3,-2.3 -5,-3.4 -8.1,-3.4 h -201.6 c -3.1,0 -5.8,1.1 -8.1,3.4 -2.3,2.2 -3.4,4.9 -3.4,8 v 274.8 c 0,3.1 1.1,5.8 3.4,8.1 2.3,2.2 5,3.4 8.1,3.4 h 198.2 c 3.1,0 5.8,-1.2 8.1,-3.4 2.2,-2.3 3.4,-5 3.4,-8.1 v -45.1 c 0,-3.1 -1.2,-5.8 -3.4,-8.1 -2.3,-2.2 -5,-3.4 -8.1,-3.4 h -131 v -45.9 h 121.6 c 3.1,0 5.8,-1.1 8.1,-3.4 2.3,-2.3 3.4,-5 3.4,-8.1 v -45.1 c 0,-3.1 -1.1,-5.8 -3.4,-8.1 -2.3,-2.2 -5,-3.4 -8.1,-3.4 h -121.6 v -47.6 h 134.4"
         style="fill:#fcf0f0;fill-opacity:1;fill-rule:nonzero;stroke:none"
         id="path314" /><path
         d="m 15599,3711.3 c 3.1,0 5.8,-1.2 8.1,-3.4 2.2,-2.3 3.4,-5 3.4,-8.1 v -45.1 c 0,-3.1 -1.2,-5.8 -3.4,-8.1 -2.3,-2.2 -5,-3.4 -8.1,-3.4 h -74.9 V 3425 c 0,-3.1 -1.1,-5.8 -3.4,-8 -2.3,-2.3 -4.9,-3.4 -8.1,-3.4 h -55.7 c -3.1,0 -5.8,1.1 -8.1,3.4 -2.2,2.2 -3.4,4.9 -3.4,8 v 218.2 h -74.8 c -3.1,0 -5.8,1.2 -8.1,3.4 -2.3,2.3 -3.4,5 -3.4,8.1 v 45.1 c 0,3.1 1.1,5.8 3.4,8.1 2.3,2.2 5,3.4 8.1,3.4 h 228.4"
         style="fill:#fcf0f0;fill-opacity:1;fill-rule:nonzero;stroke:none"
         id="path316" /><path
         d="m 15727.4,3582.4 h 48.1 c 11.9,0 21.8,2.3 29.5,6.8 7.8,4.5 11.7,12.8 11.7,24.7 0,11.9 -3.9,20.1 -11.7,24.6 -7.7,4.6 -17.6,6.8 -29.5,6.8 h -48.1 z m 48.1,128.9 c 18.7,0 35.4,-2 50.2,-6 14.7,-3.9 27.3,-9.9 37.6,-17.8 10.4,-8 18.3,-18.1 23.8,-30.5 5.6,-12.3 8.3,-26.7 8.3,-43.1 0,-21.3 -4.4,-38.9 -13.2,-53 -8.7,-14 -21.2,-24.7 -37.4,-32.1 l 52.8,-101.2 c 0.8,-1.7 1.2,-3.3 1.2,-4.7 0,-2.5 -0.9,-4.7 -2.7,-6.6 -1.9,-1.8 -4.1,-2.7 -6.6,-2.7 h -57.9 c -5.6,0 -9.7,1.2 -12.1,3.8 -2.4,2.5 -4.3,5.1 -5.7,7.6 l -47.2,91.1 h -39.2 V 3425 c 0,-3.1 -1.1,-5.8 -3.4,-8 -2.2,-2.3 -4.9,-3.4 -8.1,-3.4 h -55.7 c -3.1,0 -5.8,1.1 -8.1,3.4 -2.2,2.2 -3.4,4.9 -3.4,8 v 274.8 c 0,3.1 1.2,5.8 3.4,8.1 2.3,2.2 5,3.4 8.1,3.4 h 115.3"
         style="fill:#fcf0f0;fill-opacity:1;fill-rule:nonzero;stroke:none"
         id="path318" /><path
         d="m 16088.5,3425 c 0,-3.1 -1.1,-5.8 -3.4,-8 -2.3,-2.3 -4.9,-3.4 -8.1,-3.4 h -55.7 c -3.1,0 -5.8,1.1 -8.1,3.4 -2.2,2.2 -3.4,4.9 -3.4,8 v 90.6 l -98.2,180.8 c -1.1,2 -1.7,3.8 -1.7,5.5 0,2.6 0.9,4.8 2.8,6.6 1.8,1.9 4,2.8 6.5,2.8 h 58.3 c 5.7,0 9.9,-1.4 12.8,-4.3 2.8,-2.8 4.5,-4.9 5.1,-6.4 l 53.6,-104.6 54,104.6 c 0.5,1.5 2.2,3.6 5.1,6.4 2.8,2.9 7.1,4.3 12.7,4.3 h 58.3 c 2.6,0 4.8,-0.9 6.6,-2.8 1.8,-1.8 2.8,-4 2.8,-6.6 0,-1.7 -0.6,-3.5 -1.7,-5.5 l -98.3,-180.8 V 3425"
         style="fill:#fcf0f0;fill-opacity:1;fill-rule:nonzero;stroke:none"
         id="path320" /><path
         d="m 15026.2,11557.3 c 0,-59.9 97.5,55.7 69.6,125.3 -27.8,69.6 -69.6,-41.8 -69.6,-125.3"
         style="fill:#869edb;fill-opacity:1;fill-rule:nonzero;stroke:none"
         id="path322" /><path
         d="m 13672.8,9247 c 0,-59.9 97.5,55.7 69.6,125.3 -27.8,69.6 -69.6,-41.8 -69.6,-125.3"
         style="fill:#869edb;fill-opacity:1;fill-rule:nonzero;stroke:none"
         id="path324" /><path
         d="m 15757.2,12197.8 c -41.8,27.8 -132.3,-11.5 -27.8,-61.4 104.4,-50 208.8,23.1 167.1,35.3 -41.8,12.1 -139.3,26.1 -139.3,26.1"
         style="fill:#869edb;fill-opacity:1;fill-rule:nonzero;stroke:none"
         id="path326" /><path
         d="m 17352.1,8721.4 c -41.8,27.9 -132.3,-11.4 -27.9,-61.4 104.4,-50 208.9,23.2 167.1,35.4 -41.8,12.1 -139.2,26 -139.2,26"
         style="fill:#869edb;fill-opacity:1;fill-rule:nonzero;stroke:none"
         id="path328" /><path
         d="m 15638.9,12803.5 c 0,0 -111.4,-27.9 -41.8,-62.7 69.6,-34.8 41.8,62.7 41.8,62.7"
         style="fill:#869edb;fill-opacity:1;fill-rule:nonzero;stroke:none"
         id="path330" /><path
         d="m 16749.9,7536.2 c 0,0 -111.4,-27.8 -41.8,-62.6 69.6,-34.8 41.8,62.6 41.8,62.6"
         style="fill:#869edb;fill-opacity:1;fill-rule:nonzero;stroke:none"
         id="path332" /><path
         d="m 15798.9,10602.9 c -48.8,-31.4 -69.6,-73.1 -27.9,-69.7 41.8,3.5 73.1,13.8 66.2,34.7 -7,21 -38.3,35 -38.3,35"
         style="fill:#869edb;fill-opacity:1;fill-rule:nonzero;stroke:none"
         id="path334" /></g></g></svg>
