<?xml version="1.0" encoding="UTF-8" standalone="no"?>
<!-- Created with Inkscape (http://www.inkscape.org/) -->

<svg
   width="210mm"
   height="297mm"
   viewBox="0 0 210 297"
   version="1.1"
   id="svg5"
   inkscape:version="1.1.1 (3bf5ae0d25, 2021-09-20)"
   sodipodi:docname="main-logosvg.svg"
   xmlns:inkscape="http://www.inkscape.org/namespaces/inkscape"
   xmlns:sodipodi="http://sodipodi.sourceforge.net/DTD/sodipodi-0.dtd"
   xmlns:xlink="http://www.w3.org/1999/xlink"
   xmlns="http://www.w3.org/2000/svg"
   xmlns:svg="http://www.w3.org/2000/svg">
  <sodipodi:namedview
     id="namedview7"
     pagecolor="#ffffff"
     bordercolor="#666666"
     borderopacity="1.0"
     inkscape:pageshadow="2"
     inkscape:pageopacity="0.0"
     inkscape:pagecheckerboard="0"
     inkscape:document-units="mm"
     showgrid="false"
     inkscape:zoom="1.4110391"
     inkscape:cx="367.10534"
     inkscape:cy="475.89042"
     inkscape:window-width="1287"
     inkscape:window-height="745"
     inkscape:window-x="-8"
     inkscape:window-y="-8"
     inkscape:window-maximized="1"
     inkscape:current-layer="layer1" />
  <defs
     id="defs2">
    <linearGradient
       data-v-fde0c5aa=""
       gradientTransform="rotate(25)"
       id="608f495c-0d2d-44bf-a095-32161846a177"
       x1="0%"
       y1="0%"
       x2="100%"
       y2="0%">
      <stop
         data-v-fde0c5aa=""
         offset="0%"
         stop-color="#5106FF"
         stop-opacity="1"
         id="stop134" />
      <stop
         data-v-fde0c5aa=""
         offset="100%"
         stop-color="#61CBF2"
         stop-opacity="1"
         id="stop136" />
    </linearGradient>
    <linearGradient
       inkscape:collect="always"
       xlink:href="#608f495c-0d2d-44bf-a095-32161846a177"
       id="linearGradient177"
       gradientTransform="scale(0.60076389,1.6645475)"
       x1="83.670142"
       y1="16.591897"
       x2="84.272709"
       y2="16.591897"
       gradientUnits="userSpaceOnUse" />
    <linearGradient
       inkscape:collect="always"
       xlink:href="#608f495c-0d2d-44bf-a095-32161846a177"
       id="linearGradient179"
       x1="49.321"
       y1="27.314"
       x2="50.681"
       y2="27.314"
       gradientUnits="userSpaceOnUse" />
    <linearGradient
       inkscape:collect="always"
       xlink:href="#608f495c-0d2d-44bf-a095-32161846a177"
       id="linearGradient181"
       gradientTransform="scale(0.30143115,3.3175072)"
       x1="167.12274"
       y1="8.2718736"
       x2="180.15723"
       y2="8.2718736"
       gradientUnits="userSpaceOnUse" />
    <linearGradient
       inkscape:collect="always"
       xlink:href="#608f495c-0d2d-44bf-a095-32161846a177"
       id="linearGradient183"
       gradientTransform="scale(1.3803579,0.72444979)"
       x1="3.622249"
       y1="36.416602"
       x2="68.823455"
       y2="36.416602"
       gradientUnits="userSpaceOnUse" />
    <linearGradient
       inkscape:collect="always"
       xlink:href="#608f495c-0d2d-44bf-a095-32161846a177"
       id="linearGradient185"
       gradientTransform="scale(1.0921871,0.91559402)"
       x1="17.211336"
       y1="34.763224"
       x2="52.303309"
       y2="34.763224"
       gradientUnits="userSpaceOnUse" />
    <linearGradient
       inkscape:collect="always"
       xlink:href="#608f495c-0d2d-44bf-a095-32161846a177"
       id="linearGradient187"
       gradientTransform="scale(1.3803579,0.72444979)"
       x1="3.622249"
       y1="36.416602"
       x2="68.823455"
       y2="36.416602"
       gradientUnits="userSpaceOnUse" />
  </defs>
  <g
     inkscape:label="Layer 1"
     inkscape:groupmode="layer"
     id="layer1">
    <g
       id="g175"
       transform="matrix(0.26458333,0,0,0.26458333,58.958924,91.045534)">
      <rect
         data-v-fde0c5aa=""
         fill="#e5eafe"
         x="-6.3782783"
         y="-3.5434875"
         width="113.61252"
         height="87.390732"
         class="logo-background-square"
         id="rect127"
         ry="20.552229"
         style="fill:#d4f7fe;fill-opacity:0.14574899" />
      <g
         data-v-fde0c5aa=""
         id="b581b947-4f75-4864-b42b-6c4b12b619bb"
         fill="#22255b">
        <path
           d="m 8.57,6.67 v 0 6.79 0 Q 7.8,14.03 6.6,14.03 v 0 0 q -0.92,0 -1.46,-0.37 v 0 0 Q 4.57,13.28 4.57,12.55 v 0 -1.35 h 0.49 v 0 q 0.28,0 0.35,-0.07 v 0 0 q 0.07,-0.08 0.07,-0.24 v 0 H 3.34 v 0 q 0,0.16 0.06,0.24 v 0 0 q 0.06,0.07 0.29,0.07 v 0 h 0.52 v 2.26 0 q -0.53,0.34 -1,0.46 v 0 0 q -0.47,0.11 -0.96,0.11 v 0 0 q -0.92,0 -1.46,-0.37 v 0 0 Q 0.22,13.28 0.22,12.55 v 0 -6.8 0 Q 0.57,5.37 1.1,5.17 v 0 0 q 0.52,-0.2 1.09,-0.2 v 0 0 q 0.82,0 1.4,0.41 v 0 0 q 0.62,0.46 0.62,1.29 v 0 1.21 h 0.87 v 0 Q 5.08,7.7 5.01,7.64 v 0 0 Q 4.95,7.57 4.81,7.57 v 0 H 4.57 v -1.82 0 Q 4.93,5.37 5.45,5.17 v 0 0 q 0.52,-0.2 1.09,-0.2 v 0 0 q 0.83,0 1.4,0.41 v 0 0 q 0.63,0.46 0.63,1.29 z m 7.38,2.52 v 1.34 0 q 0,0.49 0.11,0.79 v 0 0 q 0.11,0.3 0.38,0.47 v 0 0 q 0.01,0.04 0.01,0.13 v 0 0.12 0 q 0,0.98 -0.59,1.52 v 0 0 q -0.52,0.47 -1.29,0.47 v 0 0 q -0.52,0 -0.95,-0.24 v 0 0 q -0.43,-0.25 -0.61,-0.71 v 0 0 q -0.23,0 -0.23,0.22 v 0 0 q 0,0.19 0.24,0.43 v 0 0 q -0.45,0.3 -1.34,0.3 v 0 0 q -1.27,0 -2.02,-0.68 v 0 0 Q 8.9,12.66 8.9,11.43 v 0 0 q 0,-1.24 0.8,-1.91 v 0 0 q 0.73,-0.61 1.89,-0.61 v 0 0 q 0.4,0 0.77,0.05 v 0 0 q 0.25,0.05 0.27,0.06 v 0 0 Q 12.65,8.95 12.65,8.9 v 0 0 q 0,-0.18 -0.3,-0.24 v 0 0 Q 12.04,8.6 11.56,8.6 v 0 0 q -1.03,0 -1.76,0.42 v 0 0 Q 9.46,8.45 9.46,7.58 v 0 0 q 0,-0.49 0.12,-0.73 v 0 0 q 0.5,-0.23 1.25,-0.4 v 0 0 q 0.76,-0.17 1.6,-0.17 v 0 0 q 1.74,0 2.63,0.75 v 0 0 q 0.89,0.76 0.89,2.16 z m -3.55,1.67 v 0 0 q -0.29,0 -0.29,0.26 v 0 0 q 0,0.25 0.34,0.25 v 0 0 q 0.23,0 0.34,-0.11 v 0 0 q 0.11,-0.12 0.11,-0.4 v 0 0 q 0,0 -0.5,0 z m 8.03,3.26 v 0 0 q -1.77,0 -2.83,-1.09 v 0 0 q -1.06,-1.1 -1.06,-2.95 v 0 0 q 0,-1.84 1.2,-2.92 v 0 0 q 1.07,-0.95 2.67,-0.95 v 0 0 q 1.42,0 2.35,0.7 v 0 0 q 0.94,0.7 0.94,1.9 v 0 0 q 0,0.84 -0.52,1.36 v 0 0 q -0.51,0.52 -1.35,0.52 v 0 0 q -0.69,0 -1.14,-0.36 v 0 0 Q 20.23,9.96 20.15,9.37 v 0 0 q -0.3,0 -0.3,0.22 v 0 0 q 0,0.5 0.49,0.92 v 0 0 Q 20.91,11 21.76,11 v 0 0 q 0.84,0 1.39,-0.36 v 0 0 q 0.35,0.52 0.35,1.28 v 0 0 q 0,0.87 -0.76,1.49 v 0 0 q -0.86,0.71 -2.31,0.71 z m 10.76,-4.93 -0.02,1.34 v 0 q 0,0.49 0.11,0.79 v 0 0 q 0.11,0.3 0.38,0.47 v 0 0 q 0.01,0.04 0.01,0.13 v 0 0.12 0 q 0,0.95 -0.54,1.47 v 0 0 q -0.55,0.52 -1.4,0.52 v 0 0 q -0.86,0 -1.4,-0.48 v 0 0 Q 27.71,13 27.71,11.87 v 0 0 q 0,-0.48 0.05,-0.85 v 0 0 q 0.04,-0.36 0.06,-0.52 v 0 0 q 0.02,-0.16 0.04,-0.29 v 0 0 q 0.02,-0.14 0.02,-0.41 v 0 0 q 0,-0.26 -0.07,-0.38 v 0 0 Q 27.73,9.3 27.61,9.3 v 0 0 q -0.13,0 -0.23,0.06 v 0 l 0.09,1.11 v 0 q -0.12,0.69 -0.12,1.47 v 0 0 q 0,0.77 0.35,1.4 v 0 0 q -0.67,0.69 -1.88,0.69 v 0 0 q -0.69,0 -1.2,-0.36 v 0 0 q -0.58,-0.41 -0.58,-1.09 v 0 -7.97 0 q 0.32,-0.19 0.78,-0.32 v 0 0 q 0.47,-0.12 0.94,-0.12 v 0 0 q 0.78,0 1.3,0.31 v 0 0 q 0.58,0.36 0.58,1.04 v 0 0.65 0 Q 27.04,6.2 26.5,6.51 v 0 0 q -0.48,0.27 -0.48,0.5 v 0 0 q 0,0.07 0.06,0.13 v 0 0 q 0.05,0.06 0.13,0.07 v 0 0 Q 26.5,6.88 27.02,6.65 v 0 0 q 0.52,-0.22 1.24,-0.22 v 0 0 q 0.72,0 1.29,0.21 v 0 0 q 0.73,0.28 1.14,0.84 v 0 0 q 0.5,0.68 0.5,1.71 z m 4.23,-1.43 v 0 2.71 0 q 0,1.01 0.49,1.32 v 0 0 q 0.01,0.04 0.01,0.13 v 0 0.12 0 q 0,1.01 -0.55,1.52 v 0 0 q -0.51,0.47 -1.35,0.47 v 0 0 q -0.85,0 -1.39,-0.47 v 0 0 q -0.69,-0.61 -0.69,-1.78 v 0 -4.45 0 Q 32.06,7.25 32.2,7.19 v 0 0 q 0.15,-0.05 0.3,-0.14 v 0 0 Q 32.21,6.9 31.97,6.53 v 0 0 Q 31.73,6.16 31.73,5.66 v 0 0 q 0,-0.86 0.57,-1.41 v 0 0 q 0.57,-0.54 1.39,-0.54 v 0 0 q 0.82,0 1.38,0.55 v 0 0 q 0.56,0.56 0.56,1.4 v 0 0 q 0,0.68 -0.42,1.19 v 0 0 q -0.43,0.51 -1.04,0.64 v 0 0 q 0,0.26 0.2,0.26 v 0 0 q 0.35,0 0.71,-0.28 v 0 0 q 0.28,0.21 0.34,0.29 z m 4.19,3.58 v 0 l -0.32,0.14 v 0 q 0,0.46 0.17,0.98 v 0 0 q 0.15,0.49 0.42,0.88 v 0 0 Q 39.2,14.03 38,14.03 v 0 0 q -0.69,0 -1.2,-0.36 v 0 0 q -0.58,-0.41 -0.58,-1.09 v 0 -7.97 0 q 0.32,-0.19 0.79,-0.32 v 0 0 q 0.46,-0.12 0.93,-0.12 v 0 0 q 0.79,0 1.3,0.31 v 0 0 q 0.58,0.36 0.58,1.04 v 0 0.72 0 q 0,0.91 -0.32,1.78 v 0 0 q -0.06,0.09 -0.22,0.25 v 0 0 q -0.16,0.17 -0.25,0.31 v 0 0 q -0.09,0.14 -0.09,0.23 v 0 0 q 0,0.1 0.16,0.19 v 0 0 q 0.53,-0.5 0.84,-1.09 v 0 0 q 0.3,-0.59 0.56,-1.56 v 0 0 q 0.08,-0.01 0.2,-0.03 v 0 0 Q 40.82,6.3 41.09,6.25 v 0 0 q 0.27,-0.04 0.38,-0.04 v 0 0 q 1.05,0 1.64,0.48 v 0 0 q 0.59,0.48 0.59,1.32 v 0 0 q 0,0.84 -0.54,1.44 v 0 0 q -0.49,0.54 -1.28,0.82 v 0 0 q 0.63,0.37 1.59,0.52 v 0 0 q 0.37,0.67 0.37,1.43 v 0 0 q 0,0.75 -0.48,1.26 v 0 0 q -0.53,0.55 -1.47,0.55 v 0 0 q -0.94,0 -1.55,-0.72 v 0 0 q -0.6,-0.72 -0.73,-1.97 z m 7.92,-1.24 v 0 1.2 0 q 0.05,0.05 0.16,0.05 v 0 0 q 0.11,0 0.15,-0.08 v 0 0 q 0.05,-0.07 0.05,-0.26 v 0 -0.97 0 q 0,-0.66 -0.05,-0.88 v 0 0 Q 47.78,8.95 47.63,8.95 v 0 0 q -0.09,0 -0.16,0.07 v 0 0 q 0.06,0.67 0.06,1.08 z m -2.56,3.03 v 0 0 Q 43.85,12.05 43.85,10.2 v 0 0 q 0,-1.85 1.06,-2.92 v 0 0 q 1.05,-1.07 2.77,-1.07 v 0 0 q 1.72,0 2.78,1.12 v 0 0 q 1.05,1.11 1.05,2.9 v 0 0 q 0,1.79 -1.02,2.84 v 0 0 q -1.01,1.05 -2.75,1.05 v 0 0 q -1.75,0 -2.77,-0.99 z M 55.38,7.76 v 0 2.71 0 q 0,1.01 0.49,1.32 v 0 0 q 0.01,0.04 0.01,0.13 v 0 0.12 0 q 0,1.01 -0.55,1.52 v 0 0 q -0.51,0.47 -1.35,0.47 v 0 0 q -0.84,0 -1.39,-0.47 v 0 0 Q 51.9,12.95 51.9,11.78 v 0 -4.45 0 q 0.12,-0.08 0.27,-0.14 v 0 0 q 0.14,-0.05 0.3,-0.14 v 0 0 Q 52.17,6.9 51.93,6.53 v 0 0 Q 51.69,6.16 51.69,5.66 v 0 0 q 0,-0.86 0.57,-1.41 v 0 0 q 0.57,-0.54 1.39,-0.54 v 0 0 q 0.83,0 1.38,0.55 v 0 0 q 0.56,0.56 0.56,1.4 v 0 0 q 0,0.68 -0.42,1.19 v 0 0 q -0.43,0.51 -1.04,0.64 v 0 0 q 0,0.26 0.2,0.26 v 0 0 q 0.35,0 0.71,-0.28 v 0 0 q 0.28,0.21 0.34,0.29 z"
           id="path131" />
      </g>
      <g
         data-v-fde0c5aa=""
         id="9bf29b00-fce1-49ec-a312-e0ac50b0e691"
         stroke="none"
         fill="url(#608f495c-0d2d-44bf-a095-32161846a177)"
         style="fill:url(#linearGradient187)">
        <path
           d="m 50.482,28.475 c -0.03,0.03 -0.071,0.048 -0.106,0.072 0.035,-0.025 0.076,-0.042 0.106,-0.072 z m 0.146,-0.216 c -0.021,0.052 -0.06,0.093 -0.093,0.138 0.033,-0.045 0.071,-0.086 0.093,-0.138 z m -0.075,-0.641 c 0.025,0.037 0.058,0.069 0.075,0.111 -0.018,-0.041 -0.05,-0.074 -0.075,-0.111 z m -0.287,1.003 z"
           id="path141"
           style="fill:url(#linearGradient177)" />
        <path
           d="m 50.001,28.674 a 0.68,0.68 0 1 1 0,-1.36 0.68,0.68 0 0 1 0,1.36 z m 0,-1.36 z"
           id="path143"
           style="fill:url(#linearGradient179)" />
        <path
           d="m 50.376,27.442 c 0.036,0.024 0.076,0.041 0.106,0.071 -0.03,-0.03 -0.07,-0.047 -0.106,-0.071 z m 3.929,43.242 z"
           id="path145"
           style="fill:url(#linearGradient181)" />
        <path
           d="m 86.63,69.109 c 0.108,-0.227 0.177,-0.478 0.177,-0.746 V 28.107 c 0,-0.953 -0.772,-1.725 -1.727,-1.725 H 14.92 c -0.953,0 -1.724,0.772 -1.724,1.725 v 40.256 c 0,0.269 0.066,0.52 0.176,0.746 H 5 v 2.783 c 0,0.953 0.773,1.725 1.726,1.725 h 86.549 c 0.953,0 1.726,-0.771 1.726,-1.725 V 69.109 Z M 50.001,27.314 c 0.094,0 0.183,0.019 0.265,0.053 0.042,0.018 0.074,0.049 0.11,0.075 0.036,0.024 0.076,0.041 0.106,0.071 0.03,0.03 0.047,0.07 0.071,0.105 0.025,0.037 0.058,0.069 0.075,0.111 a 0.685,0.685 0 0 1 0,0.53 c -0.021,0.052 -0.06,0.093 -0.093,0.138 -0.02,0.025 -0.031,0.056 -0.053,0.078 -0.03,0.03 -0.071,0.048 -0.106,0.072 -0.037,0.025 -0.069,0.057 -0.11,0.074 A 0.68,0.68 0 1 1 50.001,27.314 Z M 16.143,29.708 H 83.857 V 66.279 H 16.143 Z m 38.162,42.338 h -8.608 a 0.6815,0.6815 0 0 1 0,-1.363 h 8.608 a 0.6815,0.6815 0 0 1 0,1.363 z"
           id="path147"
           style="fill:url(#linearGradient183)" />
        <path
           d="m 25.039,48.313 v 1.224 H 44.878 V 48.312 H 25.039 Z m 11.594,10.3 h 3.488 v 1.225 h -3.488 z m 9.919,-10.3 h 3.488 v 1.224 h -3.488 z m -7.175,-2.017 h 3.488 V 47.52 H 39.377 Z M 20.692,31.829 h 3.489 v 1.224 h -3.489 z m 0,10.302 h 3.489 v 1.224 h -3.489 z m 0,4.165 h 3.489 v 1.224 h -3.489 z m 0,2.017 h 3.489 v 1.224 h -3.489 z m 0,-4.122 h 5.832 v 1.224 h -5.832 z m 4.347,2.105 H 37.704 V 47.52 H 25.039 Z m -4.347,4.077 h 3.489 v 1.223 h -3.489 z m 0,4.121 h 3.489 v 1.223 h -3.489 z m 32.945,-4.121 h 3.488 v 1.223 h -3.488 z m -28.598,0 H 52.8 v 1.223 H 25.039 Z m -4.347,2.061 h 27.792 v 1.223 H 20.692 Z m 4.347,2.06 h 23.444 v 1.223 H 25.039 Z m -4.347,2.061 h 17.012 v 1.223 H 20.692 Z m 0,2.058 h 14.267 v 1.225 H 20.692 Z m 0,2.061 h 7.134 v 1.225 h -7.134 z m 0,2.062 h 5.832 v 1.223 h -5.832 z m 0,-28.846 h 8.694 v 1.224 h -8.694 z m 0,2.06 h 11.594 v 1.224 H 20.692 Z m 0,2.06 h 8.694 v 1.224 h -8.694 z m 0,2.061 h 8.694 v 1.224 h -8.694 z m -1.894,-8.242 h 1.058 v 1.224 h -1.058 z m 0,2.061 h 1.058 v 1.224 h -1.058 z m 0,2.06 h 1.058 v 1.224 h -1.058 z m 0,2.06 h 1.058 v 1.224 h -1.058 z m 0,2.061 h 1.058 v 1.224 h -1.058 z m 0,2.06 h 1.058 v 1.224 h -1.058 z m 0,2.06 h 1.058 v 1.224 h -1.058 z m 0,2.061 h 1.058 v 1.224 h -1.058 z m 0,2.061 h 1.058 v 1.224 h -1.058 z m 0,2.06 h 1.058 v 1.223 h -1.058 z m 0,2.061 h 1.058 v 1.223 h -1.058 z m 0,2.06 h 1.058 v 1.223 h -1.058 z m 0,2.061 h 1.058 v 1.223 h -1.058 z m 0,2.058 h 1.058 v 1.225 h -1.058 z m 0,2.061 h 1.058 v 1.225 h -1.058 z m 0,2.062 h 1.058 v 1.223 h -1.058 z"
           id="path149"
           style="fill:url(#linearGradient185)" />
      </g>
      <g
         data-v-fde0c5aa=""
         id="27532549-0b84-4faf-adbf-7268d5f34a07"
         fill="#22255b">
        <path
           d=""
           id="path154" />
      </g>
    </g>
  </g>
</svg>
