<?xml version="1.0" encoding="UTF-8" standalone="no"?>
<!-- Created with Inkscape (http://www.inkscape.org/) -->

<svg
   width="1366"
   height="768"
   viewBox="0 0 1366 768"
   version="1.1"
   id="svg5"
   inkscape:version="1.1.1 (3bf5ae0d25, 2021-09-20)"
   sodipodi:docname="drawing.svg"
   xmlns:inkscape="http://www.inkscape.org/namespaces/inkscape"
   xmlns:sodipodi="http://sodipodi.sourceforge.net/DTD/sodipodi-0.dtd"
   xmlns:xlink="http://www.w3.org/1999/xlink"
   xmlns="http://www.w3.org/2000/svg"
   xmlns:svg="http://www.w3.org/2000/svg">
  <sodipodi:namedview
     id="namedview7"
     pagecolor="#ffffff"
     bordercolor="#666666"
     borderopacity="1.0"
     inkscape:pageshadow="2"
     inkscape:pageopacity="0.0"
     inkscape:pagecheckerboard="0"
     inkscape:document-units="px"
     showgrid="false"
     inkscape:zoom="0.36458333"
     inkscape:cx="488.22857"
     inkscape:cy="319.54286"
     inkscape:window-width="1287"
     inkscape:window-height="745"
     inkscape:window-x="-8"
     inkscape:window-y="-8"
     inkscape:window-maximized="1"
     inkscape:current-layer="layer1" />
  <defs
     id="defs2">
    <linearGradient
       gradientTransform="rotate(25)"
       id="prefix__a"
       x1="0%"
       y1="0%"
       x2="100%"
       y2="0%">
      <stop
         offset="0%"
         stop-color="#5106FF"
         id="stop824" />
      <stop
         offset="100%"
         stop-color="#61CBF2"
         id="stop826" />
    </linearGradient>
    <linearGradient
       xlink:href="#prefix__a"
       id="prefix__d"
       gradientTransform="scale(0.60076,1.66455)"
       x1="83.67"
       y1="16.592"
       x2="84.273"
       y2="16.592"
       gradientUnits="userSpaceOnUse" />
    <linearGradient
       xlink:href="#prefix__a"
       id="prefix__e"
       gradientTransform="scale(0.30143,3.3175)"
       x1="167.123"
       y1="8.272"
       x2="180.157"
       y2="8.272"
       gradientUnits="userSpaceOnUse" />
    <linearGradient
       xlink:href="#prefix__a"
       id="prefix__c"
       gradientTransform="scale(1.38036,0.72445)"
       x1="3.622"
       y1="36.417"
       x2="68.823"
       y2="36.417"
       gradientUnits="userSpaceOnUse" />
    <clipPath
       clipPathUnits="userSpaceOnUse"
       id="prefix__b">
      <path
         fill="#f0f"
         fill-opacity=".146"
         stroke-width=".979"
         d="M-3.958-2.88H63.3v22.495H-3.958z"
         id="path832" />
    </clipPath>
  </defs>
  <g
     inkscape:label="Layer 1"
     inkscape:groupmode="layer"
     id="layer1">
    <g
       transform="matrix(20.265137,0,0,27.165248,78.941671,137.49478)"
       clip-path="url(#prefix__b)"
       id="g851">
      <rect
         fill="#d4f7fe"
         x="-3.9579999"
         y="-2.8800001"
         width="67.258003"
         height="22.495001"
         class="prefix__logo-background-square"
         ry="10.997"
         fill-opacity="0.146"
         id="rect837" />
      <g
         fill="#22255b"
         id="g843">
        <path
           d="m 8.57,6.67 v 6.79 Q 7.8,14.03 6.6,14.03 5.68,14.03 5.14,13.66 4.57,13.28 4.57,12.55 V 11.2 h 0.49 q 0.28,0 0.35,-0.07 0.07,-0.08 0.07,-0.24 H 3.34 q 0,0.16 0.06,0.24 0.06,0.07 0.29,0.07 h 0.52 v 2.26 q -0.53,0.34 -1,0.46 -0.47,0.11 -0.96,0.11 -0.92,0 -1.46,-0.37 Q 0.22,13.28 0.22,12.55 V 5.75 Q 0.57,5.37 1.1,5.17 q 0.52,-0.2 1.09,-0.2 0.82,0 1.4,0.41 0.62,0.46 0.62,1.29 V 7.88 H 5.08 Q 5.08,7.7 5.01,7.64 4.95,7.57 4.81,7.57 H 4.57 V 5.75 q 0.36,-0.38 0.88,-0.58 0.52,-0.2 1.09,-0.2 0.83,0 1.4,0.41 0.63,0.46 0.63,1.29 z m 7.38,2.52 v 1.34 q 0,0.49 0.11,0.79 0.11,0.3 0.38,0.47 0.01,0.04 0.01,0.13 v 0.12 q 0,0.98 -0.59,1.52 -0.52,0.47 -1.29,0.47 -0.52,0 -0.95,-0.24 -0.43,-0.25 -0.61,-0.71 -0.23,0 -0.23,0.22 0,0.19 0.24,0.43 -0.45,0.3 -1.34,0.3 -1.27,0 -2.02,-0.68 -0.76,-0.69 -0.76,-1.92 0,-1.24 0.8,-1.91 0.73,-0.61 1.89,-0.61 0.4,0 0.77,0.05 0.25,0.05 0.27,0.06 0.02,-0.07 0.02,-0.12 0,-0.18 -0.3,-0.24 Q 12.04,8.6 11.56,8.6 10.53,8.6 9.8,9.02 9.46,8.45 9.46,7.58 q 0,-0.49 0.12,-0.73 0.5,-0.23 1.25,-0.4 0.76,-0.17 1.6,-0.17 1.74,0 2.63,0.75 0.89,0.76 0.89,2.16 z m -3.55,1.67 q -0.29,0 -0.29,0.26 0,0.25 0.34,0.25 0.23,0 0.34,-0.11 0.11,-0.12 0.11,-0.4 z m 8.03,3.26 q -1.77,0 -2.83,-1.09 -1.06,-1.1 -1.06,-2.95 0,-1.84 1.2,-2.92 1.07,-0.95 2.67,-0.95 1.42,0 2.35,0.7 0.94,0.7 0.94,1.9 0,0.84 -0.52,1.36 -0.51,0.52 -1.35,0.52 -0.69,0 -1.14,-0.36 -0.46,-0.37 -0.54,-0.96 -0.3,0 -0.3,0.22 0,0.5 0.49,0.92 0.57,0.49 1.42,0.49 0.84,0 1.39,-0.36 0.35,0.52 0.35,1.28 0,0.87 -0.76,1.49 -0.86,0.71 -2.31,0.71 z m 10.76,-4.93 -0.02,1.34 q 0,0.49 0.11,0.79 0.11,0.3 0.38,0.47 0.01,0.04 0.01,0.13 v 0.12 q 0,0.95 -0.54,1.47 -0.55,0.52 -1.4,0.52 -0.86,0 -1.4,-0.48 -0.62,-0.55 -0.62,-1.68 0,-0.48 0.05,-0.85 0.04,-0.36 0.06,-0.52 0.02,-0.16 0.04,-0.29 0.02,-0.14 0.02,-0.41 0,-0.26 -0.07,-0.38 -0.08,-0.12 -0.2,-0.12 -0.13,0 -0.23,0.06 l 0.09,1.11 q -0.12,0.69 -0.12,1.47 0,0.77 0.35,1.4 -0.67,0.69 -1.88,0.69 -0.69,0 -1.2,-0.36 -0.58,-0.41 -0.58,-1.09 V 4.61 q 0.32,-0.19 0.78,-0.32 0.47,-0.12 0.94,-0.12 0.78,0 1.3,0.31 0.58,0.36 0.58,1.04 v 0.65 q -0.6,0.03 -1.14,0.34 -0.48,0.27 -0.48,0.5 0,0.07 0.06,0.13 0.05,0.06 0.13,0.07 0.29,-0.33 0.81,-0.56 0.52,-0.22 1.24,-0.22 0.72,0 1.29,0.21 0.73,0.28 1.14,0.84 0.5,0.68 0.5,1.71 z m 4.23,-1.43 v 2.71 q 0,1.01 0.49,1.32 0.01,0.04 0.01,0.13 v 0.12 q 0,1.01 -0.55,1.52 -0.51,0.47 -1.35,0.47 -0.85,0 -1.39,-0.47 -0.69,-0.61 -0.69,-1.78 V 7.33 Q 32.06,7.25 32.2,7.19 32.35,7.14 32.5,7.05 32.21,6.9 31.97,6.53 31.73,6.16 31.73,5.66 q 0,-0.86 0.57,-1.41 0.57,-0.54 1.39,-0.54 0.82,0 1.38,0.55 0.56,0.56 0.56,1.4 0,0.68 -0.42,1.19 -0.43,0.51 -1.04,0.64 0,0.26 0.2,0.26 0.35,0 0.71,-0.28 0.28,0.21 0.34,0.29 z m 4.19,3.58 -0.32,0.14 q 0,0.46 0.17,0.98 0.15,0.49 0.42,0.88 -0.68,0.69 -1.88,0.69 -0.69,0 -1.2,-0.36 -0.58,-0.41 -0.58,-1.09 V 4.61 q 0.32,-0.19 0.79,-0.32 0.46,-0.12 0.93,-0.12 0.79,0 1.3,0.31 0.58,0.36 0.58,1.04 v 0.72 q 0,0.91 -0.32,1.78 -0.06,0.09 -0.22,0.25 -0.16,0.17 -0.25,0.31 -0.09,0.14 -0.09,0.23 0,0.1 0.16,0.19 0.53,-0.5 0.84,-1.09 0.3,-0.59 0.56,-1.56 0.08,-0.01 0.2,-0.03 0.12,-0.02 0.39,-0.07 0.27,-0.04 0.38,-0.04 1.05,0 1.64,0.48 0.59,0.48 0.59,1.32 0,0.84 -0.54,1.44 -0.49,0.54 -1.28,0.82 0.63,0.37 1.59,0.52 0.37,0.67 0.37,1.43 0,0.75 -0.48,1.26 -0.53,0.55 -1.47,0.55 -0.94,0 -1.55,-0.72 -0.6,-0.72 -0.73,-1.97 z m 7.92,-1.24 v 1.2 q 0.05,0.05 0.16,0.05 0.11,0 0.15,-0.08 0.05,-0.07 0.05,-0.26 v -0.97 q 0,-0.66 -0.05,-0.88 -0.06,-0.21 -0.21,-0.21 -0.09,0 -0.16,0.07 0.06,0.67 0.06,1.08 z m -2.56,3.03 q -1.12,-1.08 -1.12,-2.93 0,-1.85 1.06,-2.92 1.05,-1.07 2.77,-1.07 1.72,0 2.78,1.12 1.05,1.11 1.05,2.9 0,1.79 -1.02,2.84 -1.01,1.05 -2.75,1.05 -1.75,0 -2.77,-0.99 z M 55.38,7.76 v 2.71 q 0,1.01 0.49,1.32 0.01,0.04 0.01,0.13 v 0.12 q 0,1.01 -0.55,1.52 -0.51,0.47 -1.35,0.47 -0.84,0 -1.39,-0.47 Q 51.9,12.95 51.9,11.78 V 7.33 Q 52.02,7.25 52.17,7.19 52.31,7.14 52.47,7.05 52.17,6.9 51.93,6.53 51.69,6.16 51.69,5.66 q 0,-0.86 0.57,-1.41 0.57,-0.54 1.39,-0.54 0.83,0 1.38,0.55 0.56,0.56 0.56,1.4 0,0.68 -0.42,1.19 -0.43,0.51 -1.04,0.64 0,0.26 0.2,0.26 0.35,0 0.71,-0.28 0.28,0.21 0.34,0.29 z"
           id="path839" />
        <path
           d="m 8.57,6.67 v 6.79 Q 7.8,14.03 6.6,14.03 5.68,14.03 5.14,13.66 4.57,13.28 4.57,12.55 V 11.2 h 0.49 q 0.28,0 0.35,-0.07 0.07,-0.08 0.07,-0.24 H 3.34 q 0,0.16 0.06,0.24 0.06,0.07 0.29,0.07 h 0.52 v 2.26 q -0.53,0.34 -1,0.46 -0.47,0.11 -0.96,0.11 -0.92,0 -1.46,-0.37 Q 0.22,13.28 0.22,12.55 V 5.75 Q 0.57,5.37 1.1,5.17 q 0.52,-0.2 1.09,-0.2 0.82,0 1.4,0.41 0.62,0.46 0.62,1.29 V 7.88 H 5.08 Q 5.08,7.7 5.01,7.64 4.95,7.57 4.81,7.57 H 4.57 V 5.75 q 0.36,-0.38 0.88,-0.58 0.52,-0.2 1.09,-0.2 0.83,0 1.4,0.41 0.63,0.46 0.63,1.29 z m 7.38,2.52 v 1.34 q 0,0.49 0.11,0.79 0.11,0.3 0.38,0.47 0.01,0.04 0.01,0.13 v 0.12 q 0,0.98 -0.59,1.52 -0.52,0.47 -1.29,0.47 -0.52,0 -0.95,-0.24 -0.43,-0.25 -0.61,-0.71 -0.23,0 -0.23,0.22 0,0.19 0.24,0.43 -0.45,0.3 -1.34,0.3 -1.27,0 -2.02,-0.68 -0.76,-0.69 -0.76,-1.92 0,-1.24 0.8,-1.91 0.73,-0.61 1.89,-0.61 0.4,0 0.77,0.05 0.25,0.05 0.27,0.06 0.02,-0.07 0.02,-0.12 0,-0.18 -0.3,-0.24 Q 12.04,8.6 11.56,8.6 10.53,8.6 9.8,9.02 9.46,8.45 9.46,7.58 q 0,-0.49 0.12,-0.73 0.5,-0.23 1.25,-0.4 0.76,-0.17 1.6,-0.17 1.74,0 2.63,0.75 0.89,0.76 0.89,2.16 z m -3.55,1.67 q -0.29,0 -0.29,0.26 0,0.25 0.34,0.25 0.23,0 0.34,-0.11 0.11,-0.12 0.11,-0.4 z m 8.03,3.26 q -1.77,0 -2.83,-1.09 -1.06,-1.1 -1.06,-2.95 0,-1.84 1.2,-2.92 1.07,-0.95 2.67,-0.95 1.42,0 2.35,0.7 0.94,0.7 0.94,1.9 0,0.84 -0.52,1.36 -0.51,0.52 -1.35,0.52 -0.69,0 -1.14,-0.36 -0.46,-0.37 -0.54,-0.96 -0.3,0 -0.3,0.22 0,0.5 0.49,0.92 0.57,0.49 1.42,0.49 0.84,0 1.39,-0.36 0.35,0.52 0.35,1.28 0,0.87 -0.76,1.49 -0.86,0.71 -2.31,0.71 z m 10.76,-4.93 -0.02,1.34 q 0,0.49 0.11,0.79 0.11,0.3 0.38,0.47 0.01,0.04 0.01,0.13 v 0.12 q 0,0.95 -0.54,1.47 -0.55,0.52 -1.4,0.52 -0.86,0 -1.4,-0.48 -0.62,-0.55 -0.62,-1.68 0,-0.48 0.05,-0.85 0.04,-0.36 0.06,-0.52 0.02,-0.16 0.04,-0.29 0.02,-0.14 0.02,-0.41 0,-0.26 -0.07,-0.38 -0.08,-0.12 -0.2,-0.12 -0.13,0 -0.23,0.06 l 0.09,1.11 q -0.12,0.69 -0.12,1.47 0,0.77 0.35,1.4 -0.67,0.69 -1.88,0.69 -0.69,0 -1.2,-0.36 -0.58,-0.41 -0.58,-1.09 V 4.61 q 0.32,-0.19 0.78,-0.32 0.47,-0.12 0.94,-0.12 0.78,0 1.3,0.31 0.58,0.36 0.58,1.04 v 0.65 q -0.6,0.03 -1.14,0.34 -0.48,0.27 -0.48,0.5 0,0.07 0.06,0.13 0.05,0.06 0.13,0.07 0.29,-0.33 0.81,-0.56 0.52,-0.22 1.24,-0.22 0.72,0 1.29,0.21 0.73,0.28 1.14,0.84 0.5,0.68 0.5,1.71 z m 4.23,-1.43 v 2.71 q 0,1.01 0.49,1.32 0.01,0.04 0.01,0.13 v 0.12 q 0,1.01 -0.55,1.52 -0.51,0.47 -1.35,0.47 -0.85,0 -1.39,-0.47 -0.69,-0.61 -0.69,-1.78 V 7.33 Q 32.06,7.25 32.2,7.19 32.35,7.14 32.5,7.05 32.21,6.9 31.97,6.53 31.73,6.16 31.73,5.66 q 0,-0.86 0.57,-1.41 0.57,-0.54 1.39,-0.54 0.82,0 1.38,0.55 0.56,0.56 0.56,1.4 0,0.68 -0.42,1.19 -0.43,0.51 -1.04,0.64 0,0.26 0.2,0.26 0.35,0 0.71,-0.28 0.28,0.21 0.34,0.29 z m 4.19,3.58 -0.32,0.14 q 0,0.46 0.17,0.98 0.15,0.49 0.42,0.88 -0.68,0.69 -1.88,0.69 -0.69,0 -1.2,-0.36 -0.58,-0.41 -0.58,-1.09 V 4.61 q 0.32,-0.19 0.79,-0.32 0.46,-0.12 0.93,-0.12 0.79,0 1.3,0.31 0.58,0.36 0.58,1.04 v 0.72 q 0,0.91 -0.32,1.78 -0.06,0.09 -0.22,0.25 -0.16,0.17 -0.25,0.31 -0.09,0.14 -0.09,0.23 0,0.1 0.16,0.19 0.53,-0.5 0.84,-1.09 0.3,-0.59 0.56,-1.56 0.08,-0.01 0.2,-0.03 0.12,-0.02 0.39,-0.07 0.27,-0.04 0.38,-0.04 1.05,0 1.64,0.48 0.59,0.48 0.59,1.32 0,0.84 -0.54,1.44 -0.49,0.54 -1.28,0.82 0.63,0.37 1.59,0.52 0.37,0.67 0.37,1.43 0,0.75 -0.48,1.26 -0.53,0.55 -1.47,0.55 -0.94,0 -1.55,-0.72 -0.6,-0.72 -0.73,-1.97 z m 7.92,-1.24 v 1.2 q 0.05,0.05 0.16,0.05 0.11,0 0.15,-0.08 0.05,-0.07 0.05,-0.26 v -0.97 q 0,-0.66 -0.05,-0.88 -0.06,-0.21 -0.21,-0.21 -0.09,0 -0.16,0.07 0.06,0.67 0.06,1.08 z m -2.56,3.03 q -1.12,-1.08 -1.12,-2.93 0,-1.85 1.06,-2.92 1.05,-1.07 2.77,-1.07 1.72,0 2.78,1.12 1.05,1.11 1.05,2.9 0,1.79 -1.02,2.84 -1.01,1.05 -2.75,1.05 -1.75,0 -2.77,-0.99 z M 55.38,7.76 v 2.71 q 0,1.01 0.49,1.32 0.01,0.04 0.01,0.13 v 0.12 q 0,1.01 -0.55,1.52 -0.51,0.47 -1.35,0.47 -0.84,0 -1.39,-0.47 Q 51.9,12.95 51.9,11.78 V 7.33 Q 52.02,7.25 52.17,7.19 52.31,7.14 52.47,7.05 52.17,6.9 51.93,6.53 51.69,6.16 51.69,5.66 q 0,-0.86 0.57,-1.41 0.57,-0.54 1.39,-0.54 0.83,0 1.38,0.55 0.56,0.56 0.56,1.4 0,0.68 -0.42,1.19 -0.43,0.51 -1.04,0.64 0,0.26 0.2,0.26 0.35,0 0.71,-0.28 0.28,0.21 0.34,0.29 z"
           id="path841" />
      </g>
      <g
         fill="url(#prefix__c)"
         id="g849"
         style="fill:url(#prefix__c)">
        <path
           d="m 50.482,28.475 c -0.03,0.03 -0.071,0.048 -0.106,0.072 0.035,-0.025 0.076,-0.042 0.106,-0.072 z m 0.146,-0.216 c -0.021,0.052 -0.06,0.093 -0.093,0.138 0.033,-0.045 0.071,-0.086 0.093,-0.138 z m -0.075,-0.641 c 0.025,0.037 0.058,0.069 0.075,0.111 -0.018,-0.041 -0.05,-0.074 -0.075,-0.111 z m -0.287,1.003 z"
           fill="url(#prefix__d)"
           id="path845"
           style="fill:url(#prefix__d)" />
        <path
           d="m 50.376,27.442 c 0.036,0.024 0.076,0.041 0.106,0.071 -0.03,-0.03 -0.07,-0.047 -0.106,-0.071 z m 3.929,43.242 z"
           fill="url(#prefix__e)"
           id="path847"
           style="fill:url(#prefix__e)" />
      </g>
    </g>
  </g>
</svg>
